/* XPM */
static char *_bdc93f8d93e4a89afa32921bfe95bb6j7BrH41K5L3w5zoA[] = {
/* columns rows colors chars-per-pixel */
"20 20 152 2 ",
"   c #1B8ABF",
".  c #128EC2",
"X  c #1A84CE",
"o  c #1F8CCF",
"O  c #1896C8",
"+  c #1B99CB",
"@  c #1B9CD3",
"#  c #139BD9",
"$  c #218ECB",
"%  c #2B8ECA",
"&  c #3A8ECC",
"*  c #2E9BC4",
"=  c #2093C9",
"-  c #2B92CC",
";  c #3493C6",
":  c #3994CD",
">  c #3E99CE",
",  c #2E8FD3",
"<  c #248ED8",
"1  c #2E8ED8",
"2  c #328AD2",
"3  c #2595D5",
"4  c #2A93D4",
"5  c #2D9BD6",
"6  c #2195DC",
"7  c #259CD8",
"8  c #3594D3",
"9  c #3494DE",
"0  c #3A92DA",
"q  c #19A1DF",
"w  c #28A3DC",
"e  c #3AA5DB",
"r  c #0A96ED",
"t  c #1997E1",
"y  c #149BE5",
"u  c #1D99E1",
"i  c #1697E8",
"p  c #169FEB",
"a  c #1B9CEA",
"s  c #0F9BF2",
"d  c #129FF4",
"f  c #1C9EF5",
"g  c #159FF8",
"h  c #1D9DF9",
"j  c #219BE6",
"k  c #2F99E4",
"l  c #229CEB",
"z  c #2A9CEA",
"x  c #369FE3",
"c  c #339AE9",
"v  c #2396F3",
"b  c #259DF4",
"n  c #299CF3",
"m  c #2597FA",
"M  c #229DFC",
"N  c #329AF3",
"B  c #10A5E7",
"V  c #1CA3E5",
"C  c #15A3ED",
"Z  c #1BA3ED",
"A  c #14A9EB",
"S  c #1AA8EA",
"D  c #0BA6FE",
"F  c #15A3F3",
"G  c #1BA2F4",
"H  c #17ABF1",
"J  c #1AAFF3",
"K  c #13A2FD",
"L  c #1AA2FB",
"P  c #25A1E5",
"I  c #28A1E6",
"U  c #25A1EC",
"Y  c #2BA6EA",
"T  c #21A9ED",
"R  c #33A6E7",
"E  c #31A8EC",
"W  c #23A2F2",
"Q  c #29A2F3",
"!  c #20A4FA",
"~  c #29A4FB",
"^  c #25ABFF",
"/  c #2BB5F4",
"(  c #4499C5",
")  c #499EC7",
"_  c #479CC9",
"`  c #4D9FCF",
"'  c #4EA0C5",
"]  c #5EB0DF",
"[  c #69B2D2",
"{  c #6FB9D6",
"}  c #6FB3DA",
"|  c #73B5D7",
" . c #71B5D8",
".. c #70B9D9",
"X. c #5EB3F3",
"o. c #64B6E5",
"O. c #66BAE6",
"+. c #68B5E9",
"@. c #69BBE9",
"#. c #7EBEE4",
"$. c #76C0DD",
"%. c #73C7E9",
"&. c #7CC3EF",
"*. c #84CDFE",
"=. c #8DD5FF",
"-. c #81DFFF",
";. c #89DCFF",
":. c #90D8FF",
">. c #ACDFFF",
",. c #83E2FF",
"<. c #8FE3FF",
"1. c #92E4FF",
"2. c #A2E4FF",
"3. c #ADE2FF",
"4. c #AFEEFF",
"5. c #B5E4FD",
"6. c #B8E6FE",
"7. c #B3F5FF",
"8. c #B2FCFF",
"9. c #BBFBFF",
"0. c #EDEBDE",
"q. c #FBEEDB",
"w. c #F6F9DA",
"e. c #C3F7FF",
"r. c #C7FAFF",
"t. c #CDFDFF",
"y. c #D6F3FF",
"u. c #D5FFFF",
"i. c #DCFFFF",
"p. c #EEEFE7",
"a. c #ECEFEE",
"s. c #F5ECE3",
"d. c #FEE9E4",
"f. c #FFEDE8",
"g. c #F3F1E3",
"h. c #FFF5E4",
"j. c #F9F8E3",
"k. c #FEF5EC",
"l. c #FFFDEB",
"z. c #EBEEF7",
"x. c #F1ECF2",
"c. c #ECF2F3",
"v. c #EBF4FE",
"b. c #E4FFFF",
"n. c #ECFEFF",
"m. c #F2F6F4",
"M. c #FDF3F2",
"N. c #F2F9F2",
"B. c #F1F5FC",
"V. c #FDF6FA",
"C. c #F4FDFE",
"Z. c #FCFCFC",
/* pixels */
"k.f.M.x.C.n.u.8.1.;.:.2.9.u.n.B.V.s.l.w.",
"d.Z.z.C.b.5.{ ) 8 1 2 & ) ..5.n.C.a.g.j.",
"M.v.b.t.*.>   7 Y U z I @ + e o.e.n.B.M.",
"V.n.t.X.< j V T C t a G H B y 7 O.t.C.x.",
"B.b.*.X b ^ V C U Q b f F F L Q = %.b.z.",
"n.6.: I ^ r y S t l b f g L M a q * 5.n.",
"u...  T y C / # T G f f G ! Q l S . | i.",
"8.( w V V V q V p F K L G p a U F P ( 7.",
"1.8 I T U t Z C D D D K F Z Z f h v 8 <.",
";.9 U i Q Q Z F D D g h G C F f M n , ,.",
"=.0 z i b ~ h K D K M n z l G h m N w &.",
"2.: j f f f h L K h n z k z b h v R > <.",
"9.( + J F s G G F Z z k k z G f Q 3 ' 7.",
"i.[ O A K F G Z C Z l z z l G F U $  .u.",
"n.>.e p ! h Q a Z F f b f K F F B 5 >.n.",
"B.n.@.3 n a b z Z F G f G F F C 7 ] b.C.",
"m.C.e.@., j ~ f G Z a a W ! f 3 | y.C.c.",
"0.N.n.r.&.: o 6 u P E R 3 o R o.y.m.c.a.",
"l.g.p.C.i.5.#.' : - % ; ( } 3.b.C.C.m.m.",
"q.h.l.k.m.n.u.4.<.,.-.1.9.i.n.v.z.m.Z.N."
};
