/* XPM */
static char *dfbe8dce673b4242815e6da38f5f31ecvX5EDybjQNNY1EEB[] = {
/* columns rows colors chars-per-pixel */
"64 64 2 1 ",
"  c #74909F",
". c white",
/* pixels */
"                                                                ",
"                                                                ",
"                                                                ",
"                                                                ",
"                                                                ",
"...   .....................................................   ..",
"...   .....................................................   ..",
"...   .....................................................   ..",
"...   .....................................................   ..",
"...   .....................................................   ..",
"...   .....................................................   ..",
"...   ......                                         ......   ..",
"...   ......                                         ......   ..",
"...   ......  .............. ....... ..............  ......   ..",
"...   ......  .............. ....... ..............  ......   ..",
"...   ......  .............. ....... ..............  ......   ..",
"...   ......  .............. ....... ..............  ......   ..",
"...   ......  .............. ....... ..............  ......   ..",
"...   ......  .............. ....... ..............  ......   ..",
"...   ......  .............. ....... ..............  ......   ..",
"...   ......  .............. ....... ..............  ......   ..",
"...   ......  .............. ....... ..............  ......   ..",
"...   ......  .............. ....... ..............  ......   ..",
"...   ......  .............. ....... ..............  ......   ..",
"...   ......  .............. ....... ..............  ......   ..",
"...   ......  .............. ....... ..............  ......   ..",
"...   ......  .............. ....... ..............  ......   ..",
"...   ......  .............. ....... ..............  ......   ..",
"...   ......  .............. ....... ..............  ......   ..",
"...   ......  .............. ....... ..............  ......   ..",
"...   ......  .............. ....... ..............  ......   ..",
"...   ......  .............. ....... ..............  ......   ..",
"...   ......  .............. ....... ..............  ......   ..",
"...   ......  ....      .... ....... ...      .....  ......   ..",
"...   ......  ....      .... ....... ...      .....  ......   ..",
"...   ......  ....  ..  .... ....... ...  ..  .....  ......   ..",
"...   ......  ....  ..  .... ....... ...  ..  .....  ......   ..",
"...   ......  ....      .... ....... ...      .....  ......   ..",
"...   ......  ....      .... ....... ...      .....  ......   ..",
"...   ......  .............. ....... ..............  ......   ..",
"...   ......  .............. ....... ..............  ......   ..",
"...   ......  .............. ....... ..............  ......   ..",
"...   ......  .............. ....... ..............  ......   ..",
"...   ......  .............. ....... ..............  ......   ..",
"...   ......  .............. ....... ..............  ......   ..",
"...   ......  .............. ....... ..............  ......   ..",
"...   ......  .............. ....... ..............  ......   ..",
"...   ......  .............. ....... ..............  ......   ..",
"...   ......  .............. ....... ..............  ......   ..",
"...   ......  .............. ....... ..............  ......   ..",
"...   ......  .............. ....... ..............  ......   ..",
"...   ......  .............. ....... ..............  ......   ..",
"...   ......  .............. ....... ..............  ......   ..",
"...   ......  .............. ....... ..............  ......   ..",
"...   ......  .............. ....... ..............  ......   ..",
"...   ......  .............. ....... ..............  ......   ..",
"...   ......  .............. ....... ..............  ......   ..",
"...   ......  .............. ....... ..............  ......   ..",
"...   ......  .............. ....... ..............  ......   ..",
"                                                                ",
"                                                                ",
"                                                                ",
"                                                                ",
"                                                                "
};
