/* XPM */
static char *_110f0d2c69b4d2cae805b3ec3d14f8dnxWhwyWyUIdQXNZr[] = {
/* columns rows colors chars-per-pixel */
"64 64 2 1 ",
"  c #054C6E",
". c white",
/* pixels */
"                                                                ",
"                                                                ",
"                                                                ",
"                                                                ",
"                                                                ",
"      .......................       ......................      ",
"      .......................       ......................      ",
"      .......................       ......................      ",
"      .......................       ......................      ",
"      .......................       ......................      ",
"      .......................       ......................      ",
"      .......................       ......................      ",
"      .......................       ......................      ",
"      .......................       ......................      ",
"      .......................       ......................      ",
"      .......................       ......................      ",
"      .......................       ......................      ",
"      .......................       ......................      ",
"      .......................       ......................      ",
"      .......................       ......................      ",
"      .......................       ......................      ",
"      .......................       ......................      ",
"      .......................       ......................      ",
"      .......................       ......................      ",
"      .......................       ......................      ",
"      .......................       ......................      ",
"      .......................       ......................      ",
"      .......................       ......................      ",
"      .......................       ......................      ",
"      ...........      ......       .....      ...........      ",
"      ...........      ......       .....      ...........      ",
"      ...........  ..  ......       .....  ..  ...........      ",
"      ...........  ..  ......       .....  ..  ...........      ",
"      ...........      ......       .....      ...........      ",
"      ...........      ......       .....      ...........      ",
"      .......................       ......................      ",
"      .......................       ......................      ",
"      .......................       ......................      ",
"      .......................       ......................      ",
"      .......................       ......................      ",
"      .......................       ......................      ",
"      .......................       ......................      ",
"      .......................       ......................      ",
"      .......................       ......................      ",
"      .......................       ......................      ",
"      .......................       ......................      ",
"      .......................       ......................      ",
"      .......................       ......................      ",
"      .......................       ......................      ",
"      .......................       ......................      ",
"      .......................       ......................      ",
"      .......................       ......................      ",
"      .......................       ......................      ",
"      .......................       ......................      ",
"      .......................       ......................      ",
"      .......................       ......................      ",
"      .......................       ......................      ",
"      .......................       ......................      ",
"      .......................       ......................      ",
"                                                                ",
"                                                                ",
"                                                                ",
"                                                                ",
"                                                                "
};
