/* XPM */
static char *f2a4bb46f1914f38ffde592baba813f34aQl8zrh6mhl1LI0[] = {
/* columns rows colors chars-per-pixel */
"64 64 2 1 ",
"  c #74909F",
". c white",
/* pixels */
"                                                                ",
"                                                                ",
"                                                                ",
"                                                                ",
"                                                                ",
"...   .....................................................   ..",
"...   .....................................................   ..",
"...   .....................................................   ..",
"...   .....................................................   ..",
"...   .....................................................   ..",
"...   .....................................................   ..",
"...   ......                                         ......   ..",
"...   ......                                         ......   ..",
"...   ......  .................  ..................  ......   ..",
"...   ......  .................  ..................  ......   ..",
"...   ......  .................  ..................  ......   ..",
"...   ......  .................  ..................  ......   ..",
"...   ......  .................  ..................  ......   ..",
"...   ......  .................  ..................  ......   ..",
"...   ......  .................  ..................  ......   ..",
"...   ......  .................  ..................  ......   ..",
"...   ......  .................  ..................  ......   ..",
"...   ......  .................  ..................  ......   ..",
"...   ......  .................  ..................  ......   ..",
"...   ......  .................  ..................  ......   ..",
"...   ......  .................  ..................  ......   ..",
"...   ......  .................  ..................  ......   ..",
"...   ......  .................  ..................  ......   ..",
"...   ......  .................  ..................  ......   ..",
"...   ......  .................  ..................  ......   ..",
"...   ......  .................  ..................  ......   ..",
"...   ......  .................  ..................  ......   ..",
"...   ......  .................  ..................  ......   ..",
"...   ......  .........      ..  ..      ..........  ......   ..",
"...   ......  .........      ..  ..      ..........  ......   ..",
"...   ......  .........  ..  ..  ..  ..  ..........  ......   ..",
"...   ......  .........  ..  ..  ..  ..  ..........  ......   ..",
"...   ......  .........      ..  ..      ..........  ......   ..",
"...   ......  .........      ..  ..      ..........  ......   ..",
"...   ......  .................  ..................  ......   ..",
"...   ......  .................  ..................  ......   ..",
"...   ......  .................  ..................  ......   ..",
"...   ......  .................  ..................  ......   ..",
"...   ......  .................  ..................  ......   ..",
"...   ......  .................  ..................  ......   ..",
"...   ......  .................  ..................  ......   ..",
"...   ......  .................  ..................  ......   ..",
"...   ......  .................  ..................  ......   ..",
"...   ......  .................  ..................  ......   ..",
"...   ......  .................  ..................  ......   ..",
"...   ......  .................  ..................  ......   ..",
"...   ......  .................  ..................  ......   ..",
"...   ......  .................  ..................  ......   ..",
"...   ......  .................  ..................  ......   ..",
"...   ......  .................  ..................  ......   ..",
"...   ......  .................  ..................  ......   ..",
"...   ......  .................  ..................  ......   ..",
"...   ......  .................  ..................  ......   ..",
"...   ......  .................  ..................  ......   ..",
"                                                                ",
"                                                                ",
"                                                                ",
"                                                                ",
"                                                                "
};
