/* XPM */
static char *door_31672330888[] = {
/* columns rows colors chars-per-pixel */
"64 64 2 1 ",
"  c #74909F",
". c white",
/* pixels */
"                                                                ",
"                                                                ",
"                                                                ",
"                                                                ",
"                                                                ",
"...   .....................................................   ..",
"...   .....................................................   ..",
"...   .....................................................   ..",
"...   .....................................................   ..",
"...   .....................................................   ..",
"...   .....................................................   ..",
"...   ......                                         ......   ..",
"...   ......                                         ......   ..",
"...   ......  .....................................  ......   ..",
"...   ......  .....................................  ......   ..",
"...   ......  .....................................  ......   ..",
"...   ......  .....................................  ......   ..",
"...   ......  .....................................  ......   ..",
"...   ......  .....................................  ......   ..",
"...   ......  .....................................  ......   ..",
"...   ......  .....................................  ......   ..",
"...   ......  .....................................  ......   ..",
"...   ......  .....................................  ......   ..",
"...   ......  .....................................  ......   ..",
"...   ......  .....................................  ......   ..",
"...   ......  .....................................  ......   ..",
"...   ......  .....................................  ......   ..",
"...   ......  .....................................  ......   ..",
"...   ......  .....................................  ......   ..",
"...   ......  .....................................  ......   ..",
"...   ......  .....................................  ......   ..",
"...   ......  .....................................  ......   ..",
"...   ......  .....................................  ......   ..",
"...   ......  .....................................  ......   ..",
"...   ......  .....................................  ......   ..",
"...   ......  .....................................  ......   ..",
"...   ......  .....................................  ......   ..",
"...   ......  .....................................  ......   ..",
"...   ......  .....................................  ......   ..",
"...   ......  .....................................  ......   ..",
"...   ......  .....................................  ......   ..",
"...   ......  .....................................  ......   ..",
"...   ......  .....................................  ......   ..",
"...   ......  .....................................  ......   ..",
"...   ......  .....................................  ......   ..",
"...   ......  .....................................  ......   ..",
"...   ......  .....................................  ......   ..",
"...   ......  .....................................  ......   ..",
"...   ......  .....................................  ......   ..",
"...   ......  .....................................  ......   ..",
"...   ......  .....................................  ......   ..",
"...   ......  .....................................  ......   ..",
"...   ......  .....................................  ......   ..",
"...   ......  .....................................  ......   ..",
"...   ......  .....................................  ......   ..",
"...   ......  .....................................  ......   ..",
"...   ......  .....................................  ......   ..",
"...   ......  .....................................  ......   ..",
"...   ......  .....................................  ......   ..",
"                                                                ",
"                                                                ",
"                                                                ",
"                                                                ",
"                                                                "
};
