/* XPM */
static char *_41649451de84448fbdaec0ab4c5d98c8F6Wo7ePgVYdQTGV[] = {
/* columns rows colors chars-per-pixel */
"64 64 3 1 ",
"  c #054C6E",
". c white",
"X c black",
/* pixels */
"                                                                ",
"                                                                ",
"                                                                ",
"                                                                ",
"                                                                ",
"      ....................   XXXXXXX   ....................     ",
"      ....................   XXXXXXX   ....................     ",
"      ....................   XXXXXXX   ....................     ",
"      ....................   XXXXXXX   ....................     ",
"      ....................   XXXXXXX   ....................     ",
"      ....................   XXXXXXX   ....................     ",
"      ....................   XXXXXXX   ....................     ",
"      ....................   XXXXXXX   ....................     ",
"      ....................   XXXXXXX   ....................     ",
"      ....................   XXXXXXX   ....................     ",
"      ....................   XXXXXXX   ....................     ",
"      ....................   XXXXXXX   ....................     ",
"      ....................   XXXXXXX   ....................     ",
"      ....................   XXXXXXX   ....................     ",
"      ....................   XXXXXXX   ....................     ",
"      ....................   XXXXXXX   ....................     ",
"      ....................   XXXXXXX   ....................     ",
"      ....................   XXXXXXX   ....................     ",
"      ....................   XXXXXXX   ....................     ",
"      ....................   XXXXXXX   ....................     ",
"      ....................   XXXXXXX   ....................     ",
"      ....................   XXXXXXX   ....................     ",
"      ....................   XXXXXXX   ....................     ",
"      ....................   XXXXXXX   ....................     ",
"      ............      ..   XXXXXXX   ..      ............     ",
"      ............      ..   XXXXXXX   ..      ............     ",
"      ............  ..  ..   XXXXXXX   ..  ..  ............     ",
"      ............  ..  ..   XXXXXXX   ..  ..  ............     ",
"      ............      ..   XXXXXXX   ..      ............     ",
"      ............      ..   XXXXXXX   ..      ............     ",
"      ....................   XXXXXXX   ....................     ",
"      ....................   XXXXXXX   ....................     ",
"      ....................   XXXXXXX   ....................     ",
"      ....................   XXXXXXX   ....................     ",
"      ....................   XXXXXXX   ....................     ",
"      ....................   XXXXXXX   ....................     ",
"      ....................   XXXXXXX   ....................     ",
"      ....................   XXXXXXX   ....................     ",
"      ....................   XXXXXXX   ....................     ",
"      ....................   XXXXXXX   ....................     ",
"      ....................   XXXXXXX   ....................     ",
"      ....................   XXXXXXX   ....................     ",
"      ....................   XXXXXXX   ....................     ",
"      ....................   XXXXXXX   ....................     ",
"      ....................   XXXXXXX   ....................     ",
"      ....................   XXXXXXX   ....................     ",
"      ....................   XXXXXXX   ....................     ",
"      ....................   XXXXXXX   ....................     ",
"      ....................   XXXXXXX   ....................     ",
"      ....................   XXXXXXX   ....................     ",
"      ....................   XXXXXXX   ....................     ",
"      ....................   XXXXXXX   ....................     ",
"      ....................   XXXXXXX   ....................     ",
"      ....................   XXXXXXX   ....................     ",
"                                                                ",
"                                                                ",
"                                                                ",
"                                                                ",
"                                                                "
};
