/* XPM */
static char *_19c4aed536c416b975b593baa3d87d0hL9VUIE7CviOGZTg[] = {
/* columns rows colors chars-per-pixel */
"64 64 3 1 ",
"  c #E8C354",
". c white",
"X c #E9C55A",
/* pixels */
"                              ....                              ",
"                              ....                              ",
"                              ....                              ",
"                              ....                              ",
"                              ....                              ",
"                              ....                              ",
"                              ....                              ",
"                              ....                              ",
"                              ....                              ",
"                              ....                              ",
"                              ....                              ",
"                              ....                              ",
"                              ....                              ",
"                              ....                              ",
"................................................................",
"................................................................",
"                    ..                    ..                    ",
"                    ..                    .. X                  ",
"                    ..                    .. X                  ",
"                    ..                    .. X                  ",
"                    ..                    .. X                  ",
"                    ..                    .. X                  ",
"                    ..                    .. X                  ",
"                    ..                    .. X                  ",
"                    ..                    .. X                  ",
"                    ..                    .. X                  ",
"                    ..                    .. X                  ",
"                    ..                    .. X                  ",
"                    ..                    .. X                  ",
"                    ..                    .. X                  ",
"                    ..                    ..                    ",
"................................................................",
"................................................................",
"                              ....                              ",
"                              ....                              ",
"                              ....                              ",
"                              ....                              ",
"                              ....                              ",
"                              ....                              ",
"                              ....                              ",
"                              ....                              ",
"                              ....                              ",
"                              ....                              ",
"                              ....                              ",
"                              ....                              ",
"                              ....                              ",
"                              ....                              ",
"                              ....                              ",
"................................................................",
"................................................................",
"                    ..                    ..                    ",
"                    ..                    ..                    ",
"                    ..                    ..                    ",
"                    ..                    ..                    ",
"                    ..                    ..                    ",
"                    ..                    ..                    ",
"                    ..                    ..                    ",
"                    ..                    ..                    ",
"                    ..                    ..                    ",
"                    ..                    ..                    ",
"                    ..                    ..                    ",
"                    ..                    ..                    ",
"                    ..                    ..                    ",
"                    ..                    ..                    "
};
