/* XPM */
static char *_ce2f7e7e89d4c95e0601f166b251dd6RgDXqxpm9lRf9koX[] = {
/* columns rows colors chars-per-pixel */
"64 64 27 1 ",
"  c #E8C355",
". c #EFD68B",
"X c white",
"o c #E8C354",
"O c #EFD68A",
"+ c #EDD17D",
"@ c #F3E0A6",
"# c #F9F0D5",
"$ c #F9F1D6",
"% c #FEFDFA",
"& c #FAF3DD",
"* c #E9C55A",
"= c #FDF9ED",
"- c #EDCF77",
"; c #F3E1A8",
": c #F4E2AC",
"> c #FEFCF6",
", c #F6E7BB",
"< c #F6E7BA",
"1 c #F7EAC4",
"2 c #FBF5E2",
"3 c #EED381",
"4 c #FDFAF1",
"5 c #F1DB98",
"6 c #F1DB97",
"7 c #E9C55B",
"8 c #EDD078",
/* pixels */
"                             .XXXX.                             ",
"oooooooooooooooooooooooooooooOXXXXOooooooooooooooooooooooooooooo",
"oooooooooooooooooooooooooooooOXXXXOooooooooooooooooooooooooooooo",
"oooooooooooooooooooooooooooooOXXXXOooooooooooooooooooooooooooooo",
"oooooooooooooooooooooooooooooOXXXXOooooooooooooooooooooooooooooo",
"oooooooooooooooooooooooooooooOXXXXOooooooooooooooooooooooooooooo",
"oooooooooooooooooooooooooooooOXXXXOooooooooooooooooooooooooooooo",
"oooooooooooooooooooooooooooooOXXXXOooooooooooooooooooooooooooooo",
"oooooooooooooooooooooooooooooOXXXXOooooooooooooooooooooooooooooo",
"oooooooooooooooooooooooooooooOXXXXOooooooooooooooooooooooooooooo",
"oooooooooooooooooooooooooooooOXXXXOooooooooooooooooooooooooooooo",
"oooooooooooooooooooooooooooooOXXXXOooooooooooooooooooooooooooooo",
"oooooooooooooooooooooooooooooOXXXXOooooooooooooooooooooooooooooo",
"+++++++++++++++++++++++++++++@XXXX@+++++++++++++++++++++++++++++",
"XXXXXXXXXXXXXXXXXXXXXXXXXXXXXXXXXXXXXXXXXXXXXXXXXXXXXXXXXXXXXXXX",
"XXXXXXXXXXXXXXXXXXXXXXXXXXXXXXXXXXXXXXXXXXXXXXXXXXXXXXXXXXXXXXXX",
"##################$%XX&##################&XX%$##################",
"oooooooooooooooooo*=XX-oooooooooooooooooo-XX=*oooooooooooooooooo",
"oooooooooooooooooo*=XX-oooooooooooooooooo-XX=*oooooooooooooooooo",
"oooooooooooooooooo*=XX-oooooooooooooooooo-XX=*oooooooooooooooooo",
"oooooooooooooooooo*=XX-oooooooooooooooooo-XX=*oooooooooooooooooo",
"oooooooooooooooooo*=XX-oooooooooooooooooo-XX=*oooooooooooooooooo",
"oooooooooooooooooo*=XX-oooooooooooooooooo-XX=*oooooooooooooooooo",
"oooooooooooooooooo*=XX-oooooooooooooooooo-XX=*oooooooooooooooooo",
"oooooooooooooooooo*=XX-oooooooooooooooooo-XX=*oooooooooooooooooo",
"oooooooooooooooooo*=XX-oooooooooooooooooo-XX=*oooooooooooooooooo",
"oooooooooooooooooo*=XX-oooooooooooooooooo-XX=*oooooooooooooooooo",
"oooooooooooooooooo*=XX-oooooooooooooooooo-XX=*oooooooooooooooooo",
"oooooooooooooooooo*=XX-oooooooooooooooooo-XX=*oooooooooooooooooo",
"oooooooooooooooooo*=XX-oooooooooooooooooo-XX=*oooooooooooooooooo",
";;;;;;;;;;;;;;;;;;:>XX,;;;;;;;;;;;;;;;;;;<XX>:;;;;;;;;;;;;;;;;;;",
"XXXXXXXXXXXXXXXXXXXXXXXXXXXXXXXXXXXXXXXXXXXXXXXXXXXXXXXXXXXXXXXX",
"XXXXXXXXXXXXXXXXXXXXXXXXXXXXXXXXXXXXXXXXXXXXXXXXXXXXXXXXXXXXXXXX",
";;;;;;;;;;;;;;;;;;;;;;;;;;;;;1XXXX1;;;;;;;;;;;;;;;;;;;;;;;;;;;;;",
"oooooooooooooooooooooooooooooOXXXXOooooooooooooooooooooooooooooo",
"oooooooooooooooooooooooooooooOXXXXOooooooooooooooooooooooooooooo",
"oooooooooooooooooooooooooooooOXXXXOooooooooooooooooooooooooooooo",
"oooooooooooooooooooooooooooooOXXXXOooooooooooooooooooooooooooooo",
"oooooooooooooooooooooooooooooOXXXXOooooooooooooooooooooooooooooo",
"oooooooooooooooooooooooooooooOXXXXOooooooooooooooooooooooooooooo",
"oooooooooooooooooooooooooooooOXXXXOooooooooooooooooooooooooooooo",
"oooooooooooooooooooooooooooooOXXXXOooooooooooooooooooooooooooooo",
"oooooooooooooooooooooooooooooOXXXXOooooooooooooooooooooooooooooo",
"oooooooooooooooooooooooooooooOXXXXOooooooooooooooooooooooooooooo",
"oooooooooooooooooooooooooooooOXXXXOooooooooooooooooooooooooooooo",
"oooooooooooooooooooooooooooooOXXXXOooooooooooooooooooooooooooooo",
"oooooooooooooooooooooooooooooOXXXXOooooooooooooooooooooooooooooo",
"#############################2XXXX2#############################",
"XXXXXXXXXXXXXXXXXXXXXXXXXXXXXXXXXXXXXXXXXXXXXXXXXXXXXXXXXXXXXXXX",
"XXXXXXXXXXXXXXXXXXXXXXXXXXXXXXXXXXXXXXXXXXXXXXXXXXXXXXXXXXXXXXXX",
"++++++++++++++++++34XX5++++++++++++++++++6XX43++++++++++++++++++",
"oooooooooooooooooo*=XX-oooooooooooooooooo-XX=*oooooooooooooooooo",
"oooooooooooooooooo*=XX-oooooooooooooooooo-XX=*oooooooooooooooooo",
"oooooooooooooooooo*=XX-oooooooooooooooooo-XX=*oooooooooooooooooo",
"oooooooooooooooooo*=XX-oooooooooooooooooo-XX=*oooooooooooooooooo",
"oooooooooooooooooo*=XX-oooooooooooooooooo-XX=*oooooooooooooooooo",
"oooooooooooooooooo*=XX-oooooooooooooooooo-XX=*oooooooooooooooooo",
"oooooooooooooooooo*=XX-oooooooooooooooooo-XX=*oooooooooooooooooo",
"oooooooooooooooooo*=XX-oooooooooooooooooo-XX=*oooooooooooooooooo",
"oooooooooooooooooo*=XX-oooooooooooooooooo-XX=*oooooooooooooooooo",
"oooooooooooooooooo*=XX-oooooooooooooooooo-XX=*oooooooooooooooooo",
"oooooooooooooooooo*=XX-oooooooooooooooooo-XX=*oooooooooooooooooo",
"oooooooooooooooooo*=XX-oooooooooooooooooo-XX=*oooooooooooooooooo",
"                  7=XX8                  8XX=7                  "
};
