/* XPM */
static char *bcd6340f91764285a85e4f1f0c18ffaazHSkPujAJDSi9E2h[] = {
/* columns rows colors chars-per-pixel */
"64 64 2 1 ",
"  c #D07A6C",
". c white",
/* pixels */
"                              ....                              ",
"                              ....                              ",
"                              ....                              ",
"                              ....                              ",
"                              ....                              ",
"                              ....                              ",
"                              ....                              ",
"                              ....                              ",
"                              ....                              ",
"                              ....                              ",
"                              ....                              ",
"                              ....                              ",
"                              ....                              ",
"                              ....                              ",
"................................................................",
"................................................................",
"                    ..                    ..                    ",
"                    ..                    ..                    ",
"                    ..                    ..                    ",
"                    ..                    ..                    ",
"                    ..                    ..                    ",
"                    ..                    ..                    ",
"                    ..                    ..                    ",
"                    ..                    ..                    ",
"                    ..                    ..                    ",
"                    ..                    ..                    ",
"                    ..                    ..                    ",
"                    ..                    ..                    ",
"                    ..                    ..                    ",
"                    ..                    ..                    ",
"                    ..                    ..                    ",
"................................................................",
"................................................................",
"                              ....                              ",
"                              ....                              ",
"                              ....                              ",
"                              ....                              ",
"                              ....                              ",
"                              ....                              ",
"                              ....                              ",
"                              ....                              ",
"                              ....                              ",
"                              ....                              ",
"                              ....                              ",
"                              ....                              ",
"                              ....                              ",
"                              ....                              ",
"                              ....                              ",
"................................................................",
"................................................................",
"                    ..                    ..                    ",
"                    ..                    ..                    ",
"                    ..                    ..                    ",
"                    ..                    ..                    ",
"                    ..                    ..                    ",
"                    ..                    ..                    ",
"                    ..                    ..                    ",
"                    ..                    ..                    ",
"                    ..                    ..                    ",
"                    ..                    ..                    ",
"                    ..                    ..                    ",
"                    ..                    ..                    ",
"                    ..                    ..                    ",
"                    ..                    ..                    "
};
