/* XPM */
static char *_aa3362f1dbd4946f5a9e5eaec10db93YPgFMS1HBU9PdXjA[] = {
/* columns rows colors chars-per-pixel */
"64 64 20 1 ",
"  c #ECD8DA",
". c #F2E4E6",
"X c white",
"o c #F0E1E3",
"O c #F5EBEC",
"+ c #FAF5F6",
"@ c #FAF6F6",
"# c #FEFEFE",
"$ c #FBF6F6",
"% c #EDD9DB",
"& c #FDFBFB",
"* c #EDDADC",
"= c #F6ECED",
"- c #FEFDFD",
"; c #F8F1F2",
": c #FCF8F9",
"> c #F1E2E4",
", c #FDFCFC",
"< c #F1E3E4",
"1 c #EDDBDD",
/* pixels */
"                             .XXXX.                             ",
"                             .XXXX.                             ",
"                             .XXXX.                             ",
"                             .XXXX.                             ",
"                             .XXXX.                             ",
"                             .XXXX.                             ",
"                             .XXXX.                             ",
"                             .XXXX.                             ",
"                             .XXXX.                             ",
"                             .XXXX.                             ",
"                             .XXXX.                             ",
"                             .XXXX.                             ",
"                             .XXXX.                             ",
"oooooooooooooooooooooooooooooOXXXXOooooooooooooooooooooooooooooo",
"XXXXXXXXXXXXXXXXXXXXXXXXXXXXXXXXXXXXXXXXXXXXXXXXXXXXXXXXXXXXXXXX",
"XXXXXXXXXXXXXXXXXXXXXXXXXXXXXXXXXXXXXXXXXXXXXXXXXXXXXXXXXXXXXXXX",
"++++++++++++++++++@#XX$++++++++++++++++++$XX#@++++++++++++++++++",
"                  %&XX*                  *XX&%                  ",
"                  %&XX*                  *XX&%                  ",
"                  %&XX*                  *XX&%                  ",
"                  %&XX*                  *XX&%                  ",
"                  %&XX*                  *XX&%                  ",
"                  %&XX*                  *XX&%                  ",
"                  %&XX*                  *XX&%                  ",
"                  %&XX*                  *XX&%                  ",
"                  %&XX*                  *XX&%                  ",
"                  %&XX*                  *XX&%                  ",
"                  %&XX*                  *XX&%                  ",
"                  %&XX*                  *XX&%                  ",
"                  %&XX*                  *XX&%                  ",
"OOOOOOOOOOOOOOOOOO=-XX=OOOOOOOOOOOOOOOOOO=XX-=OOOOOOOOOOOOOOOOOO",
"XXXXXXXXXXXXXXXXXXXXXXXXXXXXXXXXXXXXXXXXXXXXXXXXXXXXXXXXXXXXXXXX",
"XXXXXXXXXXXXXXXXXXXXXXXXXXXXXXXXXXXXXXXXXXXXXXXXXXXXXXXXXXXXXXXX",
"OOOOOOOOOOOOOOOOOOOOOOOOOOOOO;XXXX;OOOOOOOOOOOOOOOOOOOOOOOOOOOOO",
"                             .XXXX.                             ",
"                             .XXXX.                             ",
"                             .XXXX.                             ",
"                             .XXXX.                             ",
"                             .XXXX.                             ",
"                             .XXXX.                             ",
"                             .XXXX.                             ",
"                             .XXXX.                             ",
"                             .XXXX.                             ",
"                             .XXXX.                             ",
"                             .XXXX.                             ",
"                             .XXXX.                             ",
"                             .XXXX.                             ",
"+++++++++++++++++++++++++++++:XXXX:+++++++++++++++++++++++++++++",
"XXXXXXXXXXXXXXXXXXXXXXXXXXXXXXXXXXXXXXXXXXXXXXXXXXXXXXXXXXXXXXXX",
"XXXXXXXXXXXXXXXXXXXXXXXXXXXXXXXXXXXXXXXXXXXXXXXXXXXXXXXXXXXXXXXX",
"oooooooooooooooooo>,XX<oooooooooooooooooo<XX,>oooooooooooooooooo",
"                  %&XX*                  *XX&%                  ",
"                  %&XX*                  *XX&%                  ",
"                  %&XX*                  *XX&%                  ",
"                  %&XX*                  *XX&%                  ",
"                  %&XX*                  *XX&%                  ",
"                  %&XX*                  *XX&%                  ",
"                  %&XX*                  *XX&%                  ",
"                  %&XX*                  *XX&%                  ",
"                  %&XX*                  *XX&%                  ",
"                  %&XX*                  *XX&%                  ",
"                  %&XX*                  *XX&%                  ",
"                  %&XX*                  *XX&%                  ",
"                  *&XX1                  1XX&*                  "
};
