/* XPM */
static char *bf5a5f75c7a74a30dc624a86f5dc693cdHXoJm10rpYPn0Sm[] = {
/* columns rows colors chars-per-pixel */
"64 64 6 1 ",
"  c #ECD8DA",
". c white",
"X c #FEFEFE",
"o c #FDFBFB",
"O c #FEFDFD",
"+ c #FDFCFC",
/* pixels */
"                              ....                              ",
"                              ....                              ",
"                              ....                              ",
"                              ....                              ",
"                              ....                              ",
"                              ....                              ",
"                              ....                              ",
"                              ....                              ",
"                              ....                              ",
"                              ....                              ",
"                              ....                              ",
"                              ....                              ",
"                              ....                              ",
"                              ....                              ",
"................................................................",
"................................................................",
"                   X..                    ..                    ",
"                   o..                    ..                    ",
"                   o..                    ..                    ",
"                   o..                    ..                    ",
"                   o..                    ..                    ",
"                   o..                    ..                    ",
"                   o..                    ..                    ",
"                   o..                    ..                    ",
"                   o..                    ..                    ",
"                   o..                    ..                    ",
"                   o..                    ..                    ",
"                   o..                    ..                    ",
"                   o..                    ..                    ",
"                   o..                    ..                    ",
"                   O..                    ..                    ",
"................................................................",
"................................................................",
"                              ....                              ",
"                              ....                              ",
"                              ....                              ",
"                              ....                              ",
"                              ....                              ",
"                              ....                              ",
"                              ....                              ",
"                              ....                              ",
"                              ....                              ",
"                              ....                              ",
"                              ....                              ",
"                              ....                              ",
"                              ....                              ",
"                              ....                              ",
"                              ....                              ",
"................................................................",
"................................................................",
"                   +..                    ..                    ",
"                   o..                    ..                    ",
"                   o..                    ..                    ",
"                   o..                    ..                    ",
"                   o..                    ..                    ",
"                   o..                    ..                    ",
"                   o..                    ..                    ",
"                   o..                    ..                    ",
"                   o..                    ..                    ",
"                   o..                    ..                    ",
"                   o..                    ..                    ",
"                   o..                    ..                    ",
"                   o..                    ..                    ",
"                   o..                    ..                    "
};
