/* XPM */
static char *_39e22fe86c84bafd032dffdae8bc27bQqfkyaNSJTHdWKZz[] = {
/* columns rows colors chars-per-pixel */
"64 64 2 1 ",
"  c black",
". c #F0DADA",
/* pixels */
"                                                                ",
"                                                                ",
"                                                                ",
"                                       ...         ...          ",
"                                     .......     .......        ",
"                                    .........   .........       ",
"                                    .........   .........       ",
"                                    .........   .........       ",
"                                    .........   .........       ",
"                                    .........   .........       ",
"                                    .........   ..........      ",
"                                    ......................      ",
"                                     ......................     ",
"                                     ......................     ",
"                                     .......................    ",
"           .                         ........................   ",
"         .....                       .........................  ",
"        .......                      ................  ........ ",
"       .........                     ................  .........",
"      ..........                     ...........................",
"      ...........                     ..........................",
"     ............                    ...........................",
"     .............                  ............................",
"    ........................................................... ",
"    .........................................................   ",
"   ......................................................       ",
"   .....................................................        ",
"  ......................................................        ",
"  ......   .............................................        ",
" .....     .............................................        ",
" ....      .............................................        ",
"....      .................           ..................        ",
"...       ...............               ................        ",
"          ..............                 ...............        ",
"          .............                  ...............        ",
"         ..............                   ..............        ",
"         .............                    ...............       ",
" ..      .............                    ...............    ...",
" ...    ..............                    ...............    ...",
" ...    ..............                     ..............   ....",
" ....   ..............                     ..............   ....",
" ....   .............                      ..............   ... ",
"  ...  ..............                      ..............  .... ",
"  .... ..............                      ...................  ",
"   ..................                       ..................  ",
"   ..................                       .................   ",
"    ................                        ................    ",
"     ...............                        ................    ",
"      ..............                        ...............     ",
"       ...............                     ...............      ",
"        ..................             ..................       ",
"         ...............................................        ",
"          .............................................         ",
"           ...........................................          ",
"             .......................................            ",
"              .....................................             ",
"                .................................               ",
"                  .............................                 ",
"                    .........................                   ",
"                       ...................                      ",
"                           ............                         ",
"                                ..                              ",
"                                ..                              ",
"                                ..                              "
};
