/* XPM */
static char *e6317fd30c814e03c861123f1e08dacclkYbGT4a38L64qhG[] = {
/* columns rows colors chars-per-pixel */
"64 64 40 1 ",
"  c white",
". c #FEF3F3",
"X c #FDE4E4",
"o c #FDE0E0",
"O c #FDE3E3",
"+ c #FEF1F1",
"@ c #FDE2E2",
"# c #FEECEC",
"$ c #FFFDFD",
"% c #FCD8D8",
"& c #FCD9D9",
"* c #FEEFEF",
"= c #FDDFDF",
"- c #FCDEDE",
"; c #FFFEFE",
": c #FCDDDD",
"> c #FEF8F8",
", c #FCDCDC",
"< c #FCDBDB",
"1 c #FEF4F4",
"2 c #FEF2F2",
"3 c #FEEDED",
"4 c #FDE6E6",
"5 c #FCDADA",
"6 c #FEF0F0",
"7 c #FFFBFB",
"8 c #FEEEEE",
"9 c #FDE7E7",
"0 c #FDEBEB",
"q c #FEF5F5",
"w c #FFF9F9",
"e c #FDE1E1",
"r c #FEF6F6",
"t c #FDE5E5",
"y c #FDE9E9",
"u c #FFFCFC",
"i c #FDE8E8",
"p c snow",
"a c #FEF7F7",
"s c #FDEAEA",
/* pixels */
"                                                                ",
"                                                                ",
"                                                                ",
"                                     .XoooO.     +Oooo@#$       ",
"                                    +%%%%%%&*   *%%%%%%%O       ",
"                                    =%%%%%%%-;  :%%%%%%%%>      ",
"                                   ;,%%%%%%%<$  &%%%%%%%%1      ",
"                                   ;,%%%%%%%<$  &%%%%%%%%2      ",
"                                   ;,%%%%%%%<$  &%%%%%%%%3      ",
"                                   ;:%%%%%%%<$  &%%%%%%%%4      ",
"                                    -%%%%%%%56.2%%%%%%%%%,7     ",
"                                    o%%%%%%%%%%%%%%%%%%%%%8     ",
"                                    X%%%%%%%%%%%%%%%%%%%%%-$    ",
"                                    9%%%%%%%%%%%%%%%%%%%%%%3    ",
"                                    0%%%%%%%%%%%%%%%%%%%%%%&1   ",
"        $8@=4q                      6%%%%%%%%%%%%%%%%%%%%%%%,>  ",
"       $@%%%%&+                     1%%%%%%%%%%%%%%%%<5%%%%%%<w ",
"      $e%%%%%%&+                    w%%%%%%%%%%%%%%%X$w<%%%%%%->",
"      #%%%%%%%%,7                   ;%%%%%%%%%%%%%%%0 ;-%%%%%%%=",
"     r&%%%%%%%%%X                    -%%%%%%%%%%%%%%&9O%%%%%%%%%",
"     O%%%%%%%%%%&>                   t%%%%%%%%%%%%%%%%%%%%%%%%%%",
"    >%%%%%%%%%%%%y                  u,%%%%%%%%%%%%%%%%%%%%%%%%%%",
"    i%%%%%%%%%%%%5eeeeeeeeeeeeeeeeee,%%%%%%%%%%%%%%%%%%%%%%%%%%X",
"   p%%%%%%%%%%%%%%%%%%%%%%%%%%%%%%%%%%%%%%%%%%%%%%%%%%%%%%%%%<y$",
"   9%%%%%%%%%%%%%%%%%%%%%%%%%%%%%%%%%%%%%%%%%%%%%%%%%%%%%<O3a   ",
"  7<%%%%%%%%%%%%%%%%%%%%%%%%%%%%%%%%%%%%%%%%%%%%%%%%%%%%Xp      ",
"  4%%%%%%%%%%%%%%%%%%%%%%%%%%%%%%%%%%%%%%%%%%%%%%%%%%%%X        ",
" p5%%%%%&=5%%%%%%%%%%%%%%%%%%%%%%%%%%%%%%%%%%%%%%%%%%%%.        ",
" s%%%%58$ 7:%%%%%%%%%%%%%%%%%%%%%%%%%%%%%%%%%%%%%%%%%%%>        ",
"7<%%%4p    @%%%%%%%%%%%%%%%%%%%%%%%%%%%%%%%%%%%%%%%%%%%1        ",
"y%%&s     75%%%%%%%%%%%%%%%5555555555&%%%%%%%%%%%%%%%%%*        ",
",%&*      .%%%%%%%%%%%%%<sa7uuuuuuuuup+e%%%%%%%%%%%%%%%s        ",
"i<8       y%%%%%%%%%%%%<r              $4%%%%%%%%%%%%%%t        ",
"          -%%%%%%%%%%%&a                 X%%%%%%%%%%%%%o        ",
"         7%%%%%%%%%%%%9                  a%%%%%%%%%%%%%<        ",
"         6%%%%%%%%%%%%2                   ,%%%%%%%%%%%%%u       ",
"         e%%%%%%%%%%%&w                   X%%%%%%%%%%%%%q       ",
" *su    $&%%%%%%%%%%%,$                   *%%%%%%%%%%%%%8    asa",
"p%%#    1%%%%%%%%%%%%t                    >%%%%%%%%%%%%%y    <%o",
";<%e    s%%%%%%%%%%%%*                    ;5%%%%%%%%%%%%X   q%%4",
" 4%%a   =%%%%%%%%%%%%a                     e%%%%%%%%%%%%=   4%&.",
" .%%X  p5%%%%%%%%%%%<u                     i%%%%%%%%%%%%5  p5%o;",
" ;-%%w 8%%%%%%%%%%%%o                      6%%%%%%%%%%%%%u X%%6 ",
"  +%%X;@%%%%%%%%%%%%i                      >&%%%%%%%%%%%%a1&%:; ",
"  ;e%&#<%%%%%%%%%%%%*                      u-%%%%%%%%%%%%*o%%.  ",
"   a&%&%%%%%%%%%%%%%a                       4%%%%%%%%%%%%5%%t   ",
"    #%%%%%%%%%%%%%%&$                       3%%%%%%%%%%%%%%<w   ",
"     @%%%%%%%%%%%%%O                        q%%%%%%%%%%%%%&1    ",
"     7o%%%%%%%%%%%%t                        a%%%%%%%%%%%%&#     ",
"      p:%%%%%%%%%%%%s>;                   u2o%%%%%%%%%%%%y      ",
"       p=%%%%%%%%%%%%&-46a$           p.0@5%%%%%%%%%%%%%9;      ",
"        p=%%%%%%%%%%%%%%%5:e4y033#siX=<%%%%%%%%%%%%%%%%9;       ",
"         ;4%%%%%%%%%%%%%%%%%%%%%%%%%%%%%%%%%%%%%%%%%%&3         ",
"          ;*<%%%%%%%%%%%%%%%%%%%%%%%%%%%%%%%%%%%%%%%,2          ",
"            w@%%%%%%%%%%%%%%%%%%%%%%%%%%%%%%%%%%%%%o7           ",
"             ;+-%%%%%%%%%%%%%%%%%%%%%%%%%%%%%%%%%<*$            ",
"               ;3,%%%%%%%%%%%%%%%%%%%%%%%%%%%%%%9u              ",
"                 ;+@&%%%%%%%%%%%%%%%%%%%%%%%%:y7                ",
"                    qi:%%%%%%%%%%%%%%%%%%%&o#7                  ",
"                      ;>8@<%%%%%%%%%%%%<@*p                     ",
"                          u>.8si94is32>u                        ",
"                                                                ",
"                                                                ",
"                                                                "
};
