/* XPM */
static char *_8adbba1e7604858fedfa43eb1e19d306nmMjdhbQ96jiHIa[] = {
/* columns rows colors chars-per-pixel */
"64 64 3 1 ",
"  c black",
". c #12B0FB",
"X c #060A0E",
/* pixels */
"                                                                ",
"                                                                ",
"                                                                ",
"                                                                ",
"                                                                ",
"                                                                ",
"                                                                ",
"                                                                ",
"                                                                ",
"                                                                ",
"                                                                ",
"                                                                ",
"                                                                ",
"                                                                ",
"                                                                ",
"                                                                ",
"                                                                ",
"                                                                ",
"                                                                ",
"                                                                ",
"                                                                ",
"                                                                ",
"                                                                ",
"                                                                ",
"                                                                ",
"                                                                ",
"                                                                ",
"                                                                ",
"                                                                ",
"                                                                ",
"                                                                ",
"                                                                ",
"                                                                ",
"                                                                ",
"                                                                ",
"                                                                ",
"                                                                ",
"                                                                ",
"                                                                ",
"                                                                ",
"                            ........                            ",
"                            ........                            ",
"                            ........                            ",
"                            ........                            ",
"                            ........                            ",
"                            ........                            ",
"                            ........                            ",
"                            ........                            ",
"                    ........ ...... ........                    ",
"                    ......... .... .........                    ",
"                    ..........X..X..........                    ",
"                    ...........  ...........                    ",
"                    ...........  ...........                    ",
"                    ..........X..X..........                    ",
"                    ......... .... .........                    ",
"                    ........ ...... ........                    ",
"                            ........                            ",
"                            ........                            ",
"                            ........                            ",
"                            ........                            ",
"                            ........                            ",
"                            ........                            ",
"                            ........                            ",
"                            ........                            "
};
