/* XPM */
static char *_6098_b5345e58e5f95456d31ec27385c5bf1b6ba2d15a5c92266403a123c4a275656b[] = {
/* columns rows colors chars-per-pixel */
"64 64 8 1 ",
"  c white",
". c #F6DADA",
"X c #F5D9D9",
"o c #FFFDFD",
"O c #FFFEFE",
"+ c #F7DBDB",
"@ c #F9DDDD",
"# c #FEFEFE",
/* pixels */
"                                                                ",
"                                                                ",
"                                                                ",
"                                       ...         ...          ",
"                                     XXXXXXX     XXXXXXX        ",
"                                    XXXXXXXXX   XXXXXXXXX       ",
"                                    XXXXXXXXX   XXXXXXXXX       ",
"                                    XXXXXXXXX   XXXXXXXXX       ",
"                                    XXXXXXXXX   XXXXXXXXX       ",
"                                    XXXXXXXXX   XXXXXXXXX       ",
"                                    XXXXXXXXX   XXXXXXXXXX      ",
"                                    .XXXXXXXXXXXXXXXXXXXXX      ",
"                                     XXXXXXXXXXXXXXXXXXXXXX     ",
"                                     XXXXXXXXXXXXXXXXXXXXXX     ",
"                                     XXXXXXXXXXXXXXXXXXXXXXX    ",
"           X                         XXXXXXXXXXXXXXXXXXXXXXXX   ",
"         XXXXX                       XXXXXXXXXXXXXXXXXXXXXXXXX  ",
"        XXXXXXX                      XXXXXXXXXXXXXXXXo XXXXXXXX ",
"       XXXXXXXXX                     XXXXXXXXXXXXXXXX OXXXXXXXXX",
"      XXXXXXXXXX                     XXXXXXXXXXXXXXXXXXXXXXXXXXX",
"      XXXXXXXXXXX                     XXXXXXXXXXXXXXXXXXXXXXXXXX",
"     XXXXXXXXXXXX                    XXXXXXXXXXXXXXXXXXXXXXXXXXX",
"     XXXXXXXXXXXXX                  XXXXXXXXXXXXXXXXXXXXXXXXXXXX",
"    XXXXXXXXXXXXXXXXXXXXXXXXXXXXXXXXXXXXXXXXXXXXXXXXXXXXXXXXXXX ",
"    XXXXXXXXXXXXXXXXXXXXXXXXXXXXXXXXXXXXXXXXXXXXXXXXXXXXXXXX+   ",
"   XXXXXXXXXXXXXXXXXXXXXXXXXXXXXXXXXXXXXXXXXXXXXXXXXXXXXX       ",
"   XXXXXXXXXXXXXXXXXXXXXXXXXXXXXXXXXXXXXXXXXXXXXXXXXXXXX        ",
"  XXXXXXXXXXXXXXXXXXXXXXXXXXXXXXXXXXXXXXXXXXXXXXXXXXXXX.        ",
"  XXXXXX   XXXXXXXXXXXXXXXXXXXXXXXXXXXXXXXXXXXXXXXXXXXX@        ",
" XXXXX     XXXXXXXXXXXXXXXXXXXXXXXXXXXXXXXXXXXXXXXXXXXX.        ",
" XXXX      XXXXXXXXXXXXXXXXXXXXXXXXXXXXXXXXXXXXXXXXXXXXX        ",
"XXXX      .XXXXXXXXXXXXXXX+           XXXXXXXXXXXXXXXXXX        ",
"XXX       XXXXXXXXXXXXXX+               XXXXXXXXXXXXXXXX        ",
"          XXXXXXXXXXXXX+                 XXXXXXXXXXXXXXX        ",
"          XXXXXXXXXXXXX                  +XXXXXXXXXXXXXX        ",
"         XXXXXXXXXXXXX.                   XXXXXXXXXXXXXX        ",
"         XXXXXXXXXXXXX                    XXXXXXXXXXXXXX.       ",
" XX      XXXXXXXXXXXXX                    XXXXXXXXXXXXXXX    +X+",
" XXX    .XXXXXXXXXXXXX                    @XXXXXXXXXXXXXX    XXX",
" XXX    XXXXXXXXXXXXXX                     XXXXXXXXXXXXXX   .XXX",
" XXX+   XXXXXXXXXXXXX+                     XXXXXXXXXXXXXX   XXX.",
" .XXX   XXXXXXXXXXXXX                      XXXXXXXXXXXXXX   XXX ",
"  XXX# XXXXXXXXXXXXXX                      XXXXXXXXXXXXXX  XXXX ",
"  XXXX XXXXXXXXXXXXXX                      @XXXXXXXXXXXXX+.XXX  ",
"   XXXXXXXXXXXXXXXXXX                       XXXXXXXXXXXXXXXXX.  ",
"   +XXXXXXXXXXXXXXXX+                       XXXXXXXXXXXXXXXXX   ",
"    XXXXXXXXXXXXXXXX                        XXXXXXXXXXXXXXXX#   ",
"     XXXXXXXXXXXXXXX                        .XXXXXXXXXXXXXX.    ",
"      XXXXXXXXXXXXXX                        +XXXXXXXXXXXXXX     ",
"       XXXXXXXXXXXXXX@                     .XXXXXXXXXXXXXX      ",
"        XXXXXXXXXXXXXXXXX+             .XXXXXXXXXXXXXXXXX       ",
"         XXXXXXXXXXXXXXXXXXXXXXXXXXXXXXXXXXXXXXXXXXXXXXX        ",
"          XXXXXXXXXXXXXXXXXXXXXXXXXXXXXXXXXXXXXXXXXXXXX         ",
"           XXXXXXXXXXXXXXXXXXXXXXXXXXXXXXXXXXXXXXXXXX.          ",
"            #XXXXXXXXXXXXXXXXXXXXXXXXXXXXXXXXXXXXXXX            ",
"              XXXXXXXXXXXXXXXXXXXXXXXXXXXXXXXXXXXXX             ",
"                XXXXXXXXXXXXXXXXXXXXXXXXXXXXXXXXX               ",
"                  XXXXXXXXXXXXXXXXXXXXXXXXXXXXX                 ",
"                    .XXXXXXXXXXXXXXXXXXXXXXXX                   ",
"                       @XXXXXXXXXXXXXXXXXX                      ",
"                           @.XXXXXXXX.@                         ",
"                                                                ",
"                                                                ",
"                                                                "
};
