/* XPM */
static char *c0ada03e5ee84e4bfec05c5c46b92f21y7WldOhLcay12tqZ[] = {
/* columns rows colors chars-per-pixel */
"64 64 3 1 ",
"  c black",
". c #12B0FB",
"X c #10AEF9",
/* pixels */
"                                                                ",
"                                                                ",
"                                                                ",
"                                                                ",
"                                                                ",
"                                                                ",
"                                                                ",
"                                                                ",
"                                                                ",
"                                                                ",
"                                                                ",
"                                                                ",
"                                                                ",
"                                                                ",
"                                                                ",
"                                                                ",
"                                                                ",
"                                                                ",
"                                                                ",
"                                                                ",
"                                                                ",
"                                                                ",
"                                                                ",
"                                                                ",
"                                                                ",
"                                                                ",
"                                                                ",
"                                                                ",
"                                                                ",
"                                                                ",
"                                                                ",
"                                                                ",
"                                                                ",
"                                                                ",
"                                                                ",
"                                                                ",
"                                                                ",
"                                                                ",
"                                                                ",
"                                                                ",
"                        .X            .X                        ",
"                       ....          ....                       ",
"                      ......        ......                      ",
"                     .......X      ........                     ",
"                    ..........    ..........                    ",
"                    X..........  ...........                    ",
"                     ..........  .........X                     ",
"                      .........  ........X                      ",
"                       X.......  ........                       ",
"                        .......  ......X                        ",
"                         ......  ......                         ",
"                                                                ",
"                                                                ",
"                         ......  .....X                         ",
"                        .......  .......                        ",
"                       ........  ........                       ",
"                      .........  ........X                      ",
"                     ..........  ..........                     ",
"                    ...........  X..........                    ",
"                    X........X    ..........                    ",
"                     ........      ........                     ",
"                      .....X        X.....                      ",
"                       ...X          ....                       ",
"                        ..            ..                        "
};
