/* XPM */
static char *_3d7da51da5c437dde16c520456917307EKBw7HYYoW7KWtZ[] = {
/* columns rows colors chars-per-pixel */
"64 64 2 1 ",
"  c black",
". c #12B0FB",
/* pixels */
"            ...                                  ...            ",
"           .....                                .....           ",
"          .......                              .......          ",
"         .........                            .........         ",
"        ...........                          ...........        ",
"       .............                        .............       ",
"      ...............                      ...............      ",
"     .................                    .................     ",
"    ...................                  ...................    ",
"   .....................                .....................   ",
"  .......................              .......................  ",
" .........................            ......................... ",
"...........................          ...........................",
"............................        ............................",
".............................      .............................",
" .............................    ............................. ",
"  ............................    ............................  ",
"   ...........................    ...........................   ",
"    ..........................    ..........................    ",
"     .........................    .........................     ",
"      ........................    ........................      ",
"       .......................    .......................       ",
"        ......................    ......................        ",
"         .....................    .....................         ",
"          ....................    ....................          ",
"           ...................    ...................           ",
"            ..................    ..................            ",
"             .................    .................             ",
"              ................    ................              ",
"               ...............    ...............               ",
"                                                                ",
"                                                                ",
"                                                                ",
"                                                                ",
"               ...............    ...............               ",
"              ................    ................              ",
"             .................    .................             ",
"            ..................    ..................            ",
"           ...................    ...................           ",
"          ....................    ....................          ",
"         .....................    .....................         ",
"        ......................    ......................        ",
"       .......................    .......................       ",
"      ........................    ........................      ",
"     .........................    .........................     ",
"    ..........................    ..........................    ",
"   ...........................    ...........................   ",
"  ............................    ............................  ",
" .............................    ............................. ",
".............................      .............................",
"............................        ............................",
"...........................          ...........................",
" .........................            ......................... ",
"  .......................              .......................  ",
"   .....................                .....................   ",
"    ...................                  ...................    ",
"     .................                    .................     ",
"      ...............                      ...............      ",
"       .............                        .............       ",
"        ...........                          ...........        ",
"         .........                            .........         ",
"          .......                              .......          ",
"           .....                                .....           ",
"            ...                                  ...            "
};
