/* XPM */
static char *_025e6ae6d3a4eefeb31a8fc4727971e3aZIY1Fnt919ePj3[] = {
/* columns rows colors chars-per-pixel */
"64 64 93 2 ",
"   c #7B5E24",
".  c #7E6127",
"X  c #83642D",
"o  c #88652D",
"O  c #85682E",
"+  c #896A2F",
"@  c #866732",
"#  c #886731",
"$  c #866933",
"%  c #8B6C34",
"&  c #8A6D38",
"*  c #916E36",
"=  c #906F39",
"-  c #8D7035",
";  c #8E723B",
":  c #927235",
">  c #93743C",
",  c #98753D",
"<  c #94793E",
"1  c #9B793D",
"2  c #8D7640",
"3  c #947641",
"4  c #987741",
"5  c #957942",
"6  c #9A7C44",
"7  c #9C7E49",
"8  c #A27E45",
"9  c #9C8046",
"0  c #9E824B",
"q  c #9F8650",
"w  c #A58347",
"e  c #A3844C",
"r  c #A9864D",
"t  c #A4894E",
"y  c #AA8A4F",
"u  c #A58651",
"i  c #A88751",
"p  c #A68953",
"a  c #AB8C54",
"s  c #A68C5A",
"d  c #AC8E59",
"f  c #B18E54",
"g  c #B18F59",
"h  c #AE9056",
"j  c #AE915B",
"k  c #B19155",
"l  c #B99750",
"z  c #B3945D",
"x  c #B9965C",
"c  c #B5985E",
"v  c #BA9B5D",
"b  c #BDA05C",
"n  c #B28F65",
"m  c #AE9362",
"M  c #B49661",
"N  c #B99761",
"B  c #B69963",
"V  c #BB9C64",
"C  c #B9966C",
"Z  c #B69C69",
"A  c #BB9E6A",
"S  c #BEA065",
"D  c #BDA16B",
"F  c #BDA372",
"G  c #C09E5F",
"H  c #C4A15F",
"J  c #C19D64",
"K  c #C19F69",
"L  c #C2A265",
"P  c #C8A664",
"I  c #C6A866",
"U  c #CBA965",
"Y  c #C2A36B",
"T  c #C9A66D",
"R  c #C5A86B",
"E  c #CBAB6C",
"W  c #D2AF6D",
"Q  c #D2B16C",
"!  c #C4A671",
"~  c #CBA771",
"^  c #C6A972",
"/  c #CBAB74",
"(  c #CBAD79",
")  c #D1AD76",
"_  c #D1AE78",
"`  c #CEB177",
"'  c #CEB07A",
"]  c #D6B273",
"[  c #D7B875",
"{  c #D2B47C",
"}  c #D7B979",
"|  c #D9B97C",
" . c #D5B880",
/* pixels */
"Z M V V K , , J J x v S V < p j b c j j B B p < j c B z M M C V M V V Y R Y ^ 0 z g a g g a a a g z K A p 0 ` c v b b b V M n C ",
"Z Z Z V Y 4 4 L J x x L V 1 t j c c j j S S j 5 z M M M B M M V Z M ^ D D ^ Y 5 z g g z g a a d M z ( ( j i V Y b H b b V M n C ",
"Z Z V V ! 6 8 T x x x V S 9 p j j h t j B D j 6 M c V Z B B M M M V D ^ Y ` 9 t M z x z g d a a z p ! / z c a E I I b b V B n C ",
"Z Z C B ! 8 8 L v x x V S h p p y t p j B S h 5 M M V M B V M M c D V Y  .M % V z M g z g a a g g j d A D R y S E E H b J C C C ",
"Z V V M Y e w J V v S S S j p p y h a j S D j 9 V V V M M Z M M c Z R D { > u D z M N z g a a a M ! d C Y Y z p E E I L K A M C ",
"B V C z K e w N v b S S c S s h j h j c D Y j 9 V Z M M M V M M M D D / 6 9 Y a z B M g a i i a e ^ M C A Z V h b I U L Y A M C ",
"B Z V M Y i r v v J S S b D j j h j c B Y ! j 0 V V M M M M M M c Y z D O M V i g N N N d i a i ; j D B V C D v c I E L L C M C ",
"m Z B d Y i r J x v S S c F c c j B S D / ` S u D V M M M Z V M z M V $ k c d j M N K n i g a a > e / B A D V V h L E P T J N C ",
"Z M D z V g r J x J Y L c R B B S j R F { { h h Z V z d V B n V c z > p B p c i V V Y k i a i a e > A A A C Y V l b I E E V c V ",
"Z M D M V i f v x J L Y k ^ B c D ^ ` ' S { p B D C z z B M j B z p 0 j B p p c V V K d i a i a i 3 d A F M B K c S I E E V N V ",
"Z Z C V K r x x x G N R a ^ S B b R R S 9 j 9 c T M z B B n M z j u h j z i e T V V K a i i i a a 9 3 C ! n d ! c b L I T L V N ",
"Z M B A K w N x x J L E t ^ S B S D F 0 0 0 h D ! j j A M d M d j j z c j u p ^ V V K i i a a p z p & M F n a Y c v b L T K A B ",
"C Z z V K e x v x L R S q S S c D S S 0 j j D ^ A a z A M j B z j Y j j h t V Y V B K u i a d i d M ; s C C j C v v v b L L L c ",
"Z V M B Y t i J x Y R k t c j c c c p a z D V Y j a k Z B j M m j ^ a p a p R M V M K 8 i a g a a V u u M A M B V b v H L E L V ",
"Z A Z j ~ i 4 N x L S t j c j j c c j j c j Z R 0 j M M M z j j j A p u h j V Z M z V 4 i i g u a M j 7 s C M M V b v v L L Y N ",
"Z A D k / i : v v Y S 9 S D j B B j c 0 h ; j D 6 z V z Z m s j j h h e h B z V c g V 3 8 i g i a j C 5 s C M z v V v v S L L V ",
"V V A N T / & e V Y i M D j Z B j s m q q - Z Z q j D j F s s S Z d u d d N V M z z A 8 r i i k p d c 4 D M j g M V v v N P Y v ",
"V N V V Y / 5 7 D D i M D B S B Z j c s q 2 Z c s B Z j S s B F k d d a d V A N g M N a 7 k r g d d z 6 S M k j V V V V V Y L V ",
"V L V D D ! i 5 V D i B D B D Z Z m Z m 2 q F j Z B B B m p F D z M z p a M A V N N k V , z t i d d z 7 A V z d c V K V V Y Y J ",
"S Y V Y Y D S > Z D a M D m D Z Z B Z m 2 s F j m D m m s s ^ S d n k d d g M Y N M k Y 4 k i u z d M 7 V V M k c V K V V J Y Y ",
"V Y V Y Y Y ^ 5 j D j V D m D Z Z c Z c 2 c Z c m B j c i d Y M j z a d z p d Y A g M V i u g r z d M u c V c z c A L Y J L Y T ",
"Y Y Y D Y D / e q S B Z Z s D D Z Z c q 2 b Z c c B B c p M M c M m s d Z d p A K z N N N e M i z d M p j V M c N V V J S V D T ",
"Y L T A R D R j 0 B j S D m D D b Z Z q q Z c c B B A d i Y d M d Z s p Z z i z K V N M A 8 M a d d M j a B M c V V V Y L J S Y ",
"Y V ! V ^ Y R Z 0 B j S F m D Z Z Z b q t Z s Z c Z A p p ^ u V p A s q z C a u A A M M K r z g d d M k i M c V V V V L V V V Y ",
"Y Y S V R ^ D Y e M i M Z j F S b b m 2 Z b m c Z Z b q e Y M V M B Z 7 Z B Z u i ( N z A N 6 A j j M z j i d V M V V V L L Y L ",
"Y Y D V ! ^ Y Y 0 Z u z D j D m Z Z c q Z b m c b Z b q p Y M M m m Z 7 Z Z C s 3 M F M C K 4 A z j z j h a k V M V J V V V V K ",
"Y Y V S ^ Y D R u B i j D j S B Z c j q F c s c Z I Z q c S c B m m Z q Z B A z 3 s ! B V ^ > z B M j M j j z M V V N V V J L A ",
"Y Y V A ! R D Y a V d p D m Z B Z c j j Z c c c b Z b j D M c B M B Z u Z Z A B q 7 z j V ^ 7 t V M M z c z z M c V V J L V V L ",
"L Y A V T ! D Y j A d 0 ! Z B B b j j c b Z c c Z c b m F b B B m Z n s B n Z m s & & u Z D d 6 A M c M V c z z v V V V V S J A ",
"L Y V V ! Y D Y k Z j 6 ! Z m c Z j m b Z c b c Z c c D F c S c Z Z m s m B m M A & & u Z V M 3 A M M M V M c z c N V V J V V J ",
"S D V V T Y D D z Z z 3 ^ D m B b c b j b j b j b h h ` F b F c Z Z s m Z Z m M A 2 d d z A V 3 A M M M M M c c c N v L V J V S ",
"Y Y V V Y ! D Y M S z > ( D B Z Z s j q s c Z j Z s t } S S E b Z m s m Z Z m M s & ^ B u ! C 6 V M c V V N M M M M V V L S V V ",
"/ M V ! A V Y V A V k < S E V c B c m h j V z c C 8 G ~ ~ J ~ J C Z A ; B ! a C s & ( C V A A 6 D C V Z M M C M M M V S S b S S ",
"K z V Y D V Y C S V k 1 R L c c B j B a a M z z x 8 K ) K K K K V A A e 7 A M Z u 5  .n Z A A 0 A M V V M M B M B B A J V S S b ",
"B a V A Y V Y V T M c 6 ` S z V B c m a i M c V g , ~ ~ J K J K A A A C 2 a A z u u ( M N F A i V c V D N M B M M N A V b v b S ",
"a a A A T M Y V R S v 6 ^ S v c j c B p i c M M M * x T T J K ~ D A ! ! 3 7 B Z s u A M A Y C a Y v V Y N z M N g V V V V S S c ",
"u a A A Y V Y Y Y D V 4 V Y V p c m B q e z M V K 4 , N ~ x ~ ~ ! D Y C d & a A d 6 s M Y A B k T v G L J x J N g n J C V L J v ",
"4 M A A V K Y ( V V V 6 t L J e j B S t e k M V Y i o i ) x ~ K Y D D M C 4 7 C n 3 7 B F Z B z I v G L J L K J f x J N N L J v ",
"4 V V V k A V ` V M V p > V V p j m Z q e j N N K N , 4 ~ J T ~ ! A ! C B a 7 m M 3 7 A N B A a P H H L L T P f g J J J x J J x ",
"7 Y V K u V M / V z L V & k S k s m S t 0 z M N K T i , K ~ K ~ / A ^ F d ! u p M 5 u A M C ! p U P P H P T J 8 f J J J N J J g ",
"a V a Y V A u c V V A V 7 7 Y z h j Z j t j c S K N g , J K K ) ! Y ! C Z A M u C 6 s V A B N k W l U Q P W J 8 f J n J J J J 8 ",
"a V k Y c Y i a A V V A 8 7 K c S B j j c B s 9 N K z * J _ J K Y F ! A A D V u d 0 B B V Z C M L U W P J ) ) 8 g J J n J J J 8 ",
"k L x V c L i i T V V A e 7 V Z B m j j M S j 9 4 N T = f ) K ) Y F Y A A D A d s a ! C A Z Z V G Q U W W T T 8 g K K J J J J 4 ",
"z V z V c D a e / V V V t e M V j j j j c Z S c > 8 K 4 , K ~ ) ! ! ! A C ! A d a V ( M V V M V H [ L E | E T i 8 K J C J J n 8 ",
"v v c V c V g e / V Y V p p k V B B B m j M S S N = a r % J ) K ! Y D A A A C p B C / n Z M M M x } l t V L ^ p u V V V C C g 8 ",
"S c c v c x c p / A Y M d j z Z B c c j B S V M ~ # 8 N % r ~ Y ^ A A A V C M u C m A j V V Z V a k - + 5 6 a z u V V V K C n 4 ",
"L k x b z z V z / D Y M z N z B m j j j V D V V N * , K , * K _ ! A A A Z V z q D e M Z A M V V t : - 9 7 $ > V u C A A V C g 3 ",
"R h x V c k V J ~ K ! z g A z B B B M B c z V D K 4 X K 8 * g K A A A A V Z M u A 6 d A C j M V t t S ^ V u 7 M u A A V A V g = ",
"S S c c c z f f W L J L g L x z c c c M V V B B R i $ ^ u $ V A F F Z Z Z Z m s ! 7 7 Y V L k V c Y c / A k g A k d ! z Y V V & ",
"S j c c x z x y T T J J k L v x c c z M V V S B D 9 5 Y 7 3 A D D Z Z Z F Z m s C u 6 K V S z v V Y V V B k A Y z p T M Y A Y > ",
"D j j c k c x y x ~ P J x v v b c c c B B S Z B V & d A > u Y F Z Z Z Z Z Z n m C j & V M S z x Y K V c V c ( A z i Y V A A Y > ",
"b c c c x x x k r T P J c x S v c c c c V V V V z X D M @ Z F D Z Z Z Z Z Z Z C B Z @ c V S v v V V A K ! K / N V a K A N V Y > ",
"q S c j S c f J 8 G T J v x b v c c V B B B V Z p X ( p $ D A Z Z Z m Z Z F Z Z C A & g D S x v V V z / ! Y V g V d V V V A Y e ",
"< j c j S k f L w y E L v b L b c V V B c B V S 7 ; / 0 3 ! C M Z B Z Z Z Z Z C Z Y 5 i Y L k S V V t Y A V a z V d V N V V Y a ",
"< q c S b j z x x , E L v L L S V B S B c B B S & e ! 6 u ! B B Z Z Z Z Z F Z Z C ! u 7 ^ S a v v Y u p K M p c z N c M V A V V ",
"9 < c R j c L k J : E H c R L L V S V V c c B V @ d Y 3 d F B B m m Z Z Z F Z C A A d 6 / v y V k Y a 6 T z j c c V c z V V M T ",
"D - > Y L V g x J 8 x G G P L E S V V V c j V z & B S p c Z c Z Z c Z m Z F Z Z C A u z A V w v z N x 7 M N M z z M c N M V V V ",
"S a O a ^ L x x G x x T G J ~ E R Y V Z c c V p ; m S p B S Z S Z Z Z Z Z F Z Z F B i M V v y c g c c 7 k z c z x M M x V M c V ",
"S F   - J T J x x J f U L E } Y Y R S M z B B 9 9 m B j B D Z Z Z c Z m Z Z F Z A B M z N h k x j k c e d M z N V M V M M N M N ",
"b D X . e Y T J x J f U L } R k c S Z c j V c < q c Z j B D c Z Z c Z Z F F F Z C d B z V y z f c j M i a V z V M N M c c M c V ",
"c c 9 . # v L L J J l E Y } w : p S V c j c z ; p M B c Z Z b Z Z Z Z Z F Z F Z B d C z z y x k c d N t i Y M c x M N c V V M V ",
"S j c h o w N T J x v E E E : : p v S B z c j % h j V Z Z Z Z Z Z Z Z Z F F F Z M M V k z h a f z g V i 7 T M c M c M M c N N V ",
"Z c S D 1 : f T v x x L L h 1 y z V B B z c j ; d j M V c Z Z Z Z Z Z Z F F F Z s C z j k k y k g z ! a 4 ! M c V M M c x M M V ",
"b S j ` y o f ~ J K x U L : 9 b c c z j z z j > d j V V c c Z Z Z Z Z F F F F Z a A d h z c t k a M { g > ^ V N V V V N M M c c "
};
