/* XPM */
static char *_74a8000510543bc9db24a6b9beb29fcWvS5bgVvTWGWTQPH[] = {
/* columns rows colors chars-per-pixel */
"64 64 158 2 ",
"   c #595D60",
".  c #6B6F72",
"X  c #6D7174",
"o  c #73777A",
"O  c #777B7E",
"+  c #7C7F83",
"@  c #7E8285",
"#  c #7F8289",
"$  c #838587",
"%  c #83858A",
"&  c #86898C",
"*  c #8B8C8D",
"=  c #8C8D93",
"-  c #908F94",
";  c #8E9195",
":  c #8E9198",
">  c #939394",
",  c #969897",
"<  c #94959A",
"1  c #98979C",
"2  c #96999D",
"3  c #9B9B9C",
"4  c #9EA09F",
"5  c #A0A09E",
"6  c #9699A0",
"7  c #9D9DA2",
"8  c #A09FA4",
"9  c #9EA1A5",
"0  c #A2A2A5",
"q  c #ABA7A4",
"w  c #ABA9A6",
"e  c #A5A5A9",
"r  c #A8A7AC",
"t  c #A7A8AD",
"y  c #AAAAAD",
"u  c #B1ADAB",
"i  c #ACB0AE",
"p  c #B4B1AE",
"a  c #B8B3AF",
"s  c #ADADB1",
"d  c #B0AFB3",
"f  c #AFB1B3",
"g  c #B2B3B5",
"h  c #BAB6B3",
"j  c #B5BAB7",
"k  c #BDBAB6",
"l  c #B5B5B9",
"z  c #B8B7BC",
"x  c #B7B9BC",
"c  c #BBBBBC",
"v  c #C0BBB7",
"b  c #C2BEBB",
"n  c #BFC0BB",
"m  c #C4C1BD",
"M  c #C9C4BF",
"N  c #BDBDC1",
"B  c #C0BFC4",
"V  c #BEC1C4",
"C  c #C4C3C4",
"Z  c #CAC6C2",
"A  c #C7C8C3",
"S  c #CCC9C5",
"D  c #C5C5C9",
"F  c #C8C7CC",
"G  c #C6C9CB",
"H  c #CCCCCB",
"J  c #D2CDC6",
"K  c #D2CDCA",
"L  c #CFD0CB",
"P  c #D6D1CE",
"I  c #D6D2CF",
"U  c #D7D2CE",
"Y  c #D5D1CD",
"T  c #D3D1CE",
"R  c #DAD5CF",
"E  c #D9D4CE",
"W  c #CECED1",
"Q  c #D1CFD1",
"!  c #D7D1D1",
"~  c #D7D3D0",
"^  c #D6D5D1",
"/  c #D4D4D3",
"(  c #D8D3D0",
")  c #D9D4D1",
"_  c #D9D5D2",
"`  c #DAD5D2",
"'  c #DAD6D3",
"]  c #DAD6D1",
"[  c #DCD7D1",
"{  c #DBD7D4",
"}  c #DAD6D5",
"|  c #DAD4D4",
" . c #DCD7D4",
".. c #D9D6D3",
"X. c #D7D8D3",
"o. c #DBD8D3",
"O. c #DDD8D2",
"+. c #DCD8D5",
"@. c #DDD8D5",
"#. c #DDD9D6",
"$. c #DEDAD7",
"%. c #DFDAD7",
"&. c #DFDAD5",
"*. c #DAD9D6",
"=. c #D5D5D9",
"-. c #D8D7DC",
";. c #DFDBD8",
":. c #DDD9D8",
">. c #DCDCDA",
",. c #E0DBD5",
"<. c #E1DCD6",
"1. c #E2DDD7",
"2. c #E0DBD8",
"3. c #E0DCD9",
"4. c #E1DCD9",
"5. c #E1DED9",
"6. c #E1DDDA",
"7. c #E2DEDB",
"8. c #E2DDD9",
"9. c #E4DFD9",
"0. c #E4DFDB",
"q. c #E3DFDC",
"w. c #E4DFDC",
"e. c #E1DEDB",
"r. c #DFE0DB",
"t. c #E5E0DA",
"y. c #E4E0DD",
"u. c #E4E1DC",
"i. c #E6E1DD",
"p. c #E5E1DE",
"a. c #E6E2DF",
"s. c #E7E4DF",
"d. c #E3E1DE",
"f. c #E8E3DD",
"g. c #EAE5DF",
"h. c #DBDCE0",
"j. c #E7E3E0",
"k. c #E4E4E2",
"l. c #E8E3E0",
"z. c #E8E4E1",
"x. c #E8E5E0",
"c. c #E9E5E2",
"v. c #EAE6E3",
"b. c #EBE7E4",
"n. c #E9E6E4",
"m. c #E7E8E3",
"M. c #EBE8E3",
"N. c #EEE9E3",
"B. c #EDE8E2",
"V. c #EDE9E6",
"C. c #EEEBE6",
"Z. c #ECE8E5",
"A. c #EBE9E6",
"S. c #EDECEA",
"D. c #F0EBE7",
"F. c #F1ECE9",
"G. c #F1EEEB",
"H. c #F7F6F4",
/* pixels */
"#.S _ 6.#.| _ ;.v.v.6.v.v.y.y.y.D.f.g.U P ,.R R R ! | U t.v v | | | U J J U b v q b 2.B B B S B Z B N d y x g d k y y l y 0 0 0 ",
"_ K _ #.6.y.#._ v.v.y.6.6.v.V.g.D.t.f.R J J M R | v J ,.| b ! | J ! J U B b v q q a S b Z J Z B B v B l l c g y g y s s 0 0 0 0 ",
"K S ~ I #.v.| K u.v.j._ #.M.G.M.<.R 9.<.! B v b ! v v b i.! J R b b J J M b v v a q v z b B b b l l B z j c s w y g g w 0 y y 0 ",
"K K _ _ w.y.I I _ 6.v.6.#.y.v.C.J U <.9.@.J b v B b v v | ! b ! b b b b b J B v B c v a v v v z k z b z l l s y d s y w 0 u y 8 ",
") | 6.y.V.6.K 6.T ~ v.v.6.#.{ C.P | 1.O.! P b a b b B ! v M ! ! Z S S k v v B Z K H S v a b z c D C C l l x g j g w 0 0 0 t w 3 ",
"| 6.v.v.V.#.S v.K S v.Z.y.#.K v.t.B.<.J M M M u v v v v M <.! J m I _ m v v b J B Z Z b d b h b A N b g y g g h g 0 8 0 3 7 0 0 ",
"^ y.v.6.y. .S z.#.K j.y.;.u.K 6.f.g.E J b v b v v b u v 0.f.B ! Z S K I B k b Z B k h z d h d b z g z g p g t l d w e 0 , > 0 0 ",
"I v.V.#.y.6.I z.q.I y._ { M.I o.R 1.J U b v b v b b b <.! ! ! | Y m m ) ` b u v K v d h y l d S s y z x l l t p e e w 3 & * 3 0 ",
"y._ I q.K 6.6.6.3.) Z  .b. .| #.O.J M <.J v ! ! b b J <.0.R b P Y S m A / L c y m m c b u t c B u g c z d g g 0 y d y 0 > > , 0 ",
"_ I I q.#.6.6.6.I q.S z._ ;.S Y <.J v J P P J v b B J J ! [ B Y ^ S m m Z H H A c l g C v g c g l l x g y u s 0 3 0 0 0 8 3 3 5 ",
"6.q.y.y.Z.q.6.q.K y.H  .S _ K K M M E E J P J M J U [ b B P b B L L H H A Z C C c g y N C x c p l g g d y y s 7 8 5 0 0 0 8 1 > ",
"V.C.C.6.G.6.q.v.~ q.3.K 6.o.;.Z J v M J J | M J B U ,.b B J B B A H / L H m x l m g w d l l C g g p g g y y w 5 0 t 0 5 8 3 , > ",
"j.C.C.;.b.#.6.j.3.v.y._ G.v.6.v J v v v v v v B J J J J ! K B J H A A A C C C C c c s t 0 i B l x s y y w 0 0 0 0 0 0 5 , 3 7 3 ",
"v.C.G.a.q._ _ _ 6.y.S T 6.y.#.J v v J M v q v ,.J B J ! ,.K b J ^ H A C C A A C C A c l y g B g C g y t 3 , 8 0 3 e w 0 3 3 3 1 ",
"V.G.G.b._ _ { | w.;.Z Z K K I { M J v M J b b P R J b B Q K b S X.H H H H D C z D N l b x u z d c u p y 8 3 0 t 3 0 q 8 3 1 1 > ",
"a.j.w.j.S #.v.b.y.#.6.I j.h S S v [ M M b v v b J v v v K | S | / H S A H H A C H g r x x y s r g y g x y 8 w d 3 8 0 3 , 3 7 , ",
"=.| ;.H A ;.S.*.>.-.q.;./ >.k.T m J M v M v a m S b B Z Z K Q S X.^ H C B S J B B z d N N z r r j y y y 8 0 s y w 0 0 3 3 3 5 8 ",
"~ H K H H j.S.>.>.X./ S A X.k.T M J M m M b m M b k b H H Q Q Q F H H D F F B l N l l N B z d r y y y 0 3 w y y t e 0 8 8 3 8 3 ",
"m.X.L =.X.=.=.L ~ X.>.~ H >.>.T m M J M Z M M M H Z H H H K Q F S H Q H K Q B v s d z B N z l z y d y w 0 0 8 w t w 0 0 0 0 3 5 ",
"j.Q H X.>.X.X.{ >.>.>.>.q.k.>.| v M M J K J S M K H K K H W Q F C D A m B B B l d d z z z l d d l s e r d 8 , y w 0 3 3 3 3 0 3 ",
">.Q H X.>.X.X.k.b.;.X.>.>.*.{ r.S M M J E ;._ S H H H H A F / H A A C c N B B B N d d N z d r d w t 0 0 p y 0 y 8 3 , > , 3 8 3 ",
">.X.K / | X.-.A.>.>.X.>.m.{ H X.O.J M J K ;.u._ K H C C b B D N H D D A B B B B N d d d z z l r 0 u y 3 0 g t 3 3 , - - > 3 5 8 ",
"C H H K >.k.S.H.=.q.d.m.S.m./ L R S S S S o.u.^ >.L H D B C N z C C N c N N N N N l l l z z l r y g s 0 3 0 0 , 3 , > > 3 8 8 3 ",
"S #.X.W q.m.k.b.=.S.k.>.m.S.y.{ Y S T I J ^ ;.T ;.T W W H H H N A Z c x d d N B s d d l z z d r l e y l 0 > 3 0 5 3 , 3 0 0 0 3 ",
"H S =.*.H >.S.k.>.d.h.>./ >.>.>.R J M S H T { r./ m >./ g W h.f s s N A g y d l 8 l d s l N z d g y y g w 8 8 3 3 , , 1 3 1 - $ ",
"H Z >.G.k.k.S.k.m.k.j.j.k.k.k.y.S S M m A T =.X.>.C W -.=.F t & N g z b g s l l r d l s r r 8 r w t t 0 3 0 0 3 8 8 3 * * - > > ",
"X.m H k.k.>.A.S.k.>.>.m.k.>.*.{ o.r.r.L L *.>./ =.G G W h.t % 7 A l g x l l l d l N d N N d r l 0 y y 0 8 w w 3 * , 7 > - , 7 3 ",
"H m =.G.S.k.k.A.m.k.k.m.m.k.k.k.r.r.I S S T L C Z C G G N 9 6 =.N g s g z g s 8 N r 8 r d l r r e d u t 0 e 8 1 $ - 7 q q 8 5 5 ",
"m S >.j.k.k.k.k.d.m.k.>.q.m.j.;.u.X.H L { >.=.Q j x D V V N N W N l d d g s 8 8 s r 8 6 r d 8 6 w s e 8 q 8 , 8 8 > - 7 8 3 3 8 ",
"A =.*./ / r.A.m.>.k.k.~ =.>.>.H X.Z m A L T H D c c G V N W V l N N N r s r 8 s 8 N r 8 e d d e e e 1 , 5 1 , e w - * , 8 , , 8 ",
"S k.S.Z.S.G.m.r.a.A.A.q.>.>.k.>.r.*.X.X.>.=.T A C G H N N V N N B B l r d s s d 8 r r 8 8 e e e 7 w 3 > 8 7 1 e , > > < 1 3 3 5 ",
"L >.>.=.;.k.r.>.>.>.h.>.{ { X.>.T *.;.^ / / H n C D N l V D f N N B l s N d s d N s 6 8 r 8 6 1 < y e 1 e e 8 8 3 e 8 > * > 3 3 ",
"X.r.X.H k.S.*.W -.r.k.k.r.-.-.-.=.>.X.W >.>.D c B d N B B N l N N N N e N e N e z l t 6 t 6 6 6 d 6 6 6 6 8 6 r 6 6 1 1 8 8 1 - ",
"X.r.r.X.L / r.r.r.-.-.r.m.k.r.X.H >.>.=.>.X.D B z r N N d l d N s N N r N N t N s s t t s s t t 6 6 6 : 6 6 6 8 : 6 6 6 1 - - - ",
"r.H r.r.L / m.k.-.X.h.h.k.k.k.-.C / / H W H C V B z B N s d d N s N s r N N N N s s s t t t t 6 6 6 6 + = 6 6 8 6 6 1 1 1 - - 1 ",
"L L X.r.X.r.m.k.r.r.k.r.=.-.r.m./ *.X.W H / W H F B B N s N l l N N s N t N t t s l s t t 6 t t t 6 6 : # 6 6 6 6 6 = = 1 1 1 - ",
"n r.s.r.X.X.r.m.>.k.k.r./ =.*.-.=.X./ H / -.X.H F z l d l B B l N N t N N N t t s s s t s t r r 6 : : + : : : 6 8 1 * * 1 8 1 > ",
"L m.r.L r.r.-.m.r.r.h.h.k.h.W C D G H W K =.W N K l l l N F B N N N t t t N e N t t s l l s 6 6 : + : 6 : : + : 8 1 - - - > 1 1 ",
"^ ^ L L r.r.r.r.r.-.*.=.r.r./ V C H =.>.H Q Q F F l l B B B z l V N s t t N t N t t t s r r 6 6 + + 6 6 : + + 6 1 8 3 1 - - 1 5 ",
"A n r.m.X.X.r.d./ -.*.Q Q =.X.L C H *.H c B Q Q a 8 d N z z d N N N N e s 6 9 N s t 9 6 r r t t 6 : e 6 : + : 6 - 8 q 3 1 1 5 5 ",
"^ ^ X.r.X.X.r.r./ X.>.-.L H L -.*.C D / H A C V N z l z N B N N N N t t t t t l l t 6 t s s s s r 6 6 8 < # # : 1 < - 8 8 1 1 - ",
"L X.r.r.r.r.X.L u.=./ / -.-.-.-./ =./ A c G / / / F B B B B N g N N N N l t 6 6 s t t t s s t t e r 8 8 6 : : : : = = < < - - - ",
"X.^ X.r.r.r.X.L =.X.*.>.r.r.r.r.>.h.*.G c g N -.F D N B D F B N N V N N l t t 6 t t t t t t r r 6 e 8 6 6 8 8 : = = = - 1 1 1 - ",
"r.r.X.X.X.r.X./ Q / =.*.X.=.-.k.>.>.W Q S g s D Q W B B B B N z z V N t l l t s t t t t s t 6 8 6 9 8 : : 6 8 6 = : - - 1 8 3 1 ",
"r.X.=.X.r.r.=./ y./ G A X.>.>.X.D X.H N H L V l Q H F F B B N N V V z l s s l l t t s t t t r 6 6 9 6 6 : : < 8 - < 1 - * 1 1 * ",
"/ / X.X.r.r.X.H / / / =.h.h.>./ / Q H A / =.H C D C D B D D B D N V z s s l t t s s t t t t r 6 9 6 9 7 6 : : 6 1 1 1 - * * * * ",
"L ^ X.r.r.r.=.L c K >.h.>.=.W H k.H H / H H H W W D B B B B N l N N l t s l t 6 t t t t t t t 6 e 7 9 9 6 : 1 1 8 1 > 1 - * * * ",
"X.r.X.X.X.X.X./ H H H H / X./ D W X.>.H x G *.H C N z N W =.W D N N t t s l t 6 6 9 t 6 9 t t t t t 9 6 1 < 8 1 - = - - - * * 1 ",
"L r.X.S.k.H W H X.W H / / / / X.h.=.H V C H A n S V A H A H F g n V n i i i 0 9 e s e r 1 8 8 y t 9 e 9 2 : : 4 : # # ; & @ ; 2 ",
"G r.W =.=.X.X.V H H H H W Q / / W =.W H C C L T m.A c c l l N z n n n i t i w y d d r e 8 8 7 7 t t 9 9 4 2 2 9 2 # @ # , ; # @ ",
"W X.L W / =.X.C C H H H C A Q W F =.=./ A c n S A A n p g C H l i n n t i t w y d s d e 8 6 8 8 f t 9 6 9 9 9 2 ; # # ; ; ; @ @ ",
"X.W W r.X.D D / D / H C V G / Q W W W W H C g p n L L n z D N y i f n i f i e 9 w r g 8 8 1 e d t t 9 6 9 9 4 ; ; , 9 ; @ X O ; ",
"-.L / -./ V V L / X.L C Z Q *.W W D D H L A n n A n m Z V g d N f n i i f i e 9 e 0 t 5 8 7 r r 9 9 9 4 2 9 2 ; ; 2 4 ; .   . @ ",
"X.W W / / / G H W Q C V C / -.W =.=.W H C A A L p i i j x g s z n V n i j f w f e 7 3 8 s s e < : 6 6 4 4 2 2 2 ; , , ; O . O @ ",
"X.W X.W / X.H X.>.W H A L / / L =.h.*.H C C A A j A k w g j y 7 i f f f g f d j y 0 3 0 w s 5 > 6 2 4 2 2 2 2 3 2 ; ; , > & @ ; ",
"-.V =.r.L C V k.m.k.-.-.>.=./ / W =./ H G A m j S A g i C A N z 6 t V V x f s k y t 3 0 3 0 3 0 9 9 2 4 9 , , 2 4 , > > 4 * & & ",
"X.-.H Q >.H G h.k.k.=.L n n G H =.=.W / Q G n n A A m l N N N N t f t # f n i 9 f g i 3 8 0 , q 3 , q , * , , q 4 2 , , 2 ; * * ",
"L -.*./ >.L / S.k.-./ Q H G G H -.=.=.W H H S L n k g p N f N N V n i # i f t t f 0 0 , , 3 * 3 - < q > * 5 5 5 4 ; , , ; ; * ; ",
"W >.{ Q / W Q k.r.L G Q X./ H A =.=.=./ L L T / m n i j N N N N V V V f i 9 f V j 3 4 4 3 > * > , 7 5 , > , > > , , ; * * > > * ",
"/ =.H G / =.H H =.G c G / H G H G W W *.=./ L L H m x N W G N V f f V V i 2 t f g 9 0 y 5 3 5 3 5 3 5 5 3 * $ , 4 , * * * > > > ",
"H L G C W =./ H / C c G H H D H W W W W / / H A A L H n V =.V N V f x x V f t : r 0 w w 3 3 w 5 5 , , 8 5 * * , 5 5 > * * > , > ",
"C H W H A A G A H H A G H H H / -.=.W Q / / A n A X.L n V W V N f x V x V V n 9 3 w w 0 3 3 y q , 5 , , * * * * , 5 > * * * > * ",
"H H / L C C C V H Q L H H H W H =.W / / X./ L A L / L n V V V V t x V t V N n i 5 y 5 5 5 3 5 q 3 q 3 > > * , * * , , * $ * * * ",
"/ L Q W Q L H D A Q / Q Q / H C G G W -.r.X.L L L L C n W V V V V V V 9 V f i f 5 w 5 5 5 > , q 5 5 > 3 , * , , * > , * * * > > "
};
