/* XPM */
static char *af80691f7f60406b805662c7f41b32e1xYfcIDML7oW0UlCc[] = {
/* columns rows colors chars-per-pixel */
"64 64 91 1 ",
"  c #57524F",
". c #665D5B",
"X c #6D6564",
"o c #6E6A67",
"O c #6F6468",
"+ c #726867",
"@ c #746C6B",
"# c #786E6F",
"$ c #75706D",
"% c #79716E",
"& c #7A6D71",
"* c #7D7573",
"= c #7E7975",
"- c #817476",
"; c #817977",
": c #817678",
"> c #857C7B",
", c #897D7E",
"< c #86817E",
"1 c #88807E",
"2 c #8A7D81",
"3 c #8C8483",
"4 c #8E8986",
"5 c #8F8388",
"6 c #918586",
"7 c #918987",
"8 c #92868B",
"9 c #958D8B",
"0 c #998E8E",
"q c #96918D",
"w c #99918E",
"e c #978A91",
"r c #9B8D94",
"t c #9E8E98",
"y c #979191",
"u c #9B9492",
"i c #9E9996",
"p c #9E9198",
"a c #9E9898",
"s c #A19596",
"d c #A19997",
"f c #A1959A",
"g c #A49C9B",
"h c #A89E9E",
"j c #A5A19E",
"k c #A9A29E",
"l c #A69BA0",
"z c #AA9FA1",
"x c #A7A2A1",
"c c #ACA4A3",
"v c #ADA9A6",
"b c #AEA3A9",
"n c #AFABA8",
"m c #B1A7A6",
"M c #B1A9A6",
"N c #B1A6A9",
"B c #B4ACAB",
"V c #B9AEAE",
"C c #B6B1AE",
"Z c #B9B1AF",
"A c #B7ABB2",
"S c #B9AEB4",
"D c #B6B4B1",
"F c #BBB4B2",
"G c #BDB9B5",
"H c #BDB2B9",
"J c #BFBBB8",
"K c #C0B6B5",
"L c #C1B9B7",
"P c #C2B6BA",
"I c #C3BCBA",
"U c #C9BDBD",
"Y c #C6C1BE",
"T c #C9C1BF",
"R c #C9BDC1",
"E c #C7C3C0",
"W c #CBC4C2",
"Q c #CDCAC5",
"! c #CFC4C8",
"~ c #D0C5C4",
"^ c #D1C9C6",
"/ c #D2C6C9",
"( c #D2CDCA",
") c #D9CECD",
"_ c #D5D1CD",
"` c #D8D0CD",
"' c #D7CCD0",
"] c #D9CED2",
"[ c #DAD5D2",
"{ c #DFDAD7",
"} c #E1D7D6",
/* pixels */
"GFVFFMckgvMBMVF6qq9qqqq<qq44jgCCZCMZZTTTYLTTTGTkGGGGGGGGGYKKLTTB",
"FVVFZvgskMMMMGLuqqqqqquuqiqqkkYGYKZZGLGGGGGZTLTCGGGGCGGGLLZKKUUm",
"FZZZVcdudmMVBGF97qqq9qqu4qq4iiCGZGGGGGZZGCGCGZTGGGGGGGGGGYZYPRRV",
"ZVZFZMkddcMBmFZ77qqqq9qqqqqqiiGLZZGGGZZGCGGCGCTMGGGGGGvjZYZKKPRN",
"FFFFFZmkBZVBmFKwuw99qwuwuquwiiKZGCGGZGZGGGGCGZTMGGGCGYGvGYUUPUWS",
"VBBMmmkggcMMcBM13>*%=137q4wuudLCGCCGZGGGGZGCGZQZGCvCCGGGcCAGFPEA",
"YUIGKLKZkZFFFLL9u0767wsgq1qudkIVvvvCGGCCZGZCGZTMYQGYGTQYkVFIUR^P",
"ww979wuq33>**7u*%*=***-;<@;11wBkjjkCGGGCGZGZGCLk1vj11k1j9dhcghbi",
"MMmmmkvkck>9Bmsssghf08330339deBVjjvCZZkLLGZZZZZ1cBBBBk>BBBCvvvvv",
"YYYYUYLLUYBm~IYYFPUPhisfhfgfhfFKCCGCZkZLZZLLKZZkPPBbL~mWJIYJGGJJ",
"KZKGZKKGFYIgUBKCKFVK8izNhbMhgfKKGCGCZkZZZGGGZKKMHIFbMWMICFFFFDFF",
"ZZZZZZFZVIZkYCZCFbfN,hmvhcNchsFVMkkkZMTZZTZZZKUkGU!PFEmZFDFFFGFD",
"IKKKLLKLKLkcTULUUSS~dVBhzhbBVhFKMkkkZZTZGTLLLT~MPHPRT^MKYGGGGGGG",
"ZKGZFZZZLZ77gksghhkB3888936ef8fsk1k1117k1dkMdkkdNbzbkMwICCCnCCDD",
"KZFFFZKFLLi1jsuw8908-,688668020611k1w1.117=17711gzzfdi<YGCnvnCGG",
"FKFKKFKKZTZwLKTK~RRW~!~~///UUK)UQTTQ``;d}Z1kMZKkrdriMB9GCvjjjnCD",
"KZVKKKKVKKV0KBVKKVBBVVKKKBVKKBVKZLZMZ`k1L1M1M1k1eddwivvYCvvvGGDD",
"KKKZKKKKKKLsKKVVVKKVKVKVZBVKKVZVZZZLL`111M1MkM1Migdu1jiGYCCDGGGG",
"KKKKKKKKZKK9VKKKVVKKKVVVVVFFVZKVZZZLZZ11k11M1k11wwww1iqZCGCGDDDD",
"VZVZKVKVKUK6BKKKKKVKZKKKKKKZmKKKZZZZZZ1kZ1k1k1M1w99w<u1YGCGGGDGG",
"VVVKVKKKVIK9VKVmBBVCZZZZVZZMcmBvZZZZL^1M111Mk1kMww9u1w1YDDCCDGDD",
"KKKKKLLKKUK9VFMcBZZLLLKZFFIIFFFBZZLZL`111k111k1100wdqiqYYGGGGJGD",
"BmVmBBBBKVM6mMmcMBBVCBBMBBZFMvBBMkZM1T1k11M1k1k170qw1iqCGGYGGYGG",
"00077966166+006311;-%->1>**-@@*3111111.kMM1k1k11wuq9<1<1<<j<<<j<",
"~)^^^)(~UEWYW~^^TYT4qCCJBnvvnnMBMZMML111Zk11k1kk1111d11`__QTTQTZ",
"T^^T~^^WWQ~~WWQ~^^{vxEYYJJIIIJJJTLLT`T111kk11k1kMM11111`Q_QT^``T",
"TTTTWWWYWWWWUGIYYY_nuYGDDGGGJFFDZKZZ^T11k1k1k1k11k1111k`QQQTT^`~",
"TT~TWWWWWUUWIZFYTY_B4JJGGFFFDFGGZLLZT^111k1k1k1k11k1kZZ~YQQTTTTT",
"QTTWQWWEWYYQEGJWQY_C4YJYGGGGGGJJLLTZLL11k1k11k1ik1k11K~^UT~~T~~~",
"WYYWQWEEWYEWWYEQYY_vuJDDDGFGGGGFLZZZLL111k1ki1kk1dii1kK`UU~~~T~T",
"WYYWWEEWQWYEWEWEYY_xxEGDJGFDDDDGZMZGTT1Mk11k1kk1j1iidkM~TT~~~UTT",
"QYWQQWWQ^QWEWQWIYY_ixYGGJDxiujnDZ1MLLT1Z11k1k111k1i11kV)TTTT~~~~",
"TYY(QQWYQWEEEER!ER!DBYZGDvijiijGZMCGZG1Cqqquqqqq9qd7sdu)TTUT~~UU",
"YYQ(_QYWEEEE!!!/EE(AvIZGGDnnvjnGLZGZCG<kuqqqquuuy7w8s9,T~TUU~~~R",
"YY(WQ_Y(WW!('']'/]{DcJGYGGGGDDDGGGTM1j$Ciuqqqqqqgwu9ssd})T)))))T",
"_Q_IY(HW!RW!!!!!FHJayACGGGJGGDDGZZGYQT$1q7<<444<>61-,0sLUUKKKKKU",
"Cjj9ui3*85552555yaxewLGZDGJGGGGCYGZGYG o<<<<<<<<@,9166,0011,,,,1",
"YYIFHRA8lfppplllrubzCTIGGGGGGGGGGCGvGG1_QTTQ((QTBKU~UVBKKKKBKKKK",
"SFVPSPR5pprrtttppycxCYDDGGDGGGGGYZCCYvvGDFDDGGGYkBVVVkBKkmBKBmKK",
"FPSPAS'8rrrrttrep8zgvYDJGDGJGGGJZZYGYjCTLYYYGJYYsKKKBVKmhmBKKKKK",
"HFSPFS]22eteettr00NzbPFLLICLIYDFYGGZYvvYGYGGGGDTgIZFZGZZKKKZZKZK",
"SPSPSA/8&2tpttrtl9czMIBUZLFGDZCYGGYGYvvYGYGGYYGYdLZFZKZGBKZKZZZZ",
"SFSFSS/2>28treetaebmG~GLGIILGZFGZGCCTnjYCYGGYJYTwKZKZLZKKMKZZZZK",
"FSVGGSR8r5>8tttp9acsN/YFILYYTTYDGYZGTvjYCYYGGGYT9GZGZKZDVKVVZKZC",
"GZCDLFG>5*&>e823,68-,zmhggkkkBFMCCGCYvjGCGYGCCGD7FZFnCvnFFDZGZZG",
"GDDCGZC3:=>52&OO#&-:>,363317$4ui<<<<q<<<qqquuq<=4CCCvvkvDCCDZGZD",
"CCGnFDFyEEEUFxhzSKU/^PKKYTL^gYQ^[[{[[T{T{{{{[{[Y4FCCvvkkvkvnCGGD",
"CCGCFGYvEJnczxBVVPPFGKIFFGB^k`QWTT_TT_{YT_[_YT[Q4GFFknvvkkkkBDGF",
"BCZYZKYVYKZZZZCZCCGGGCDGGGGYCW(EQQQQ_[___QQEYQ_Y9ZIFKKmskmmmMKTZ",
"KLZCCKYZLKKZLZCMYZZYYGGGGDCYDQ_QQQQQ_Q____QQQQQQiCZZKmmssmmmMVVM",
"BZBBVZTCZLLLLKCMGCCCCGGGGCDYDYWYQQQQQQQQ___QYQ__kKCKKmmmmVKVVKKK",
"LLZLZKTKKFZYLLCBGCCCGGGGJGGTFEQQQQQ_QQQ____QQ__QkZBZKVKVVVKVMVZZ",
"BGCGCZYCFDDGLFDDCvvvZZZZDCCYCYQQQQQQEQQQQ_QQQ_YEgKKKKKKKKKKKKKKV",
"CGCDDLYDTIGFGYLYYZZYYKYKGGGIMY(QQQQQQQEEQQQYQQYYsKKKmhKVVVVKKKVV",
"LYGGZGYDYYDCDDFGYYYYYYTTYYYLvQ`(_QQQQQQQQQQYY_YYmUKUPUU~UKUUU~UU",
"kkjjjjMjGCMvkvMMkkkvv1dmjjjjwG_QQQEQQQQQQQQQQ_{{-,-,,,,2t0s1111k",
"xvnvji<o<dvnviq$1kmmk111kMk11GQ_QQQQQQQQYQYY_Q_Y-2ttttl2tttttt--",
"EQQQQQJDjGYYYYYjVkmkVVkk11kZ1`TQ__QQQQEQQQQQ_YYYbPRPRRRPUUUP))Vz",
"xnnnnDDDnFDCCJJjk111111dM1kZZ`QT_Q_QQQQEYQQYYYY_bSAAPPHHVVVNSUAt",
"vnDDGJGDYJDFDJJxkkVkmdkk1MZ11`_YQQQ_QQQQQ_QQY___ASAAPPHHKVPPAUPt",
"jvCDGGDDnnxDDCDx1k1sm1k1MZZMv_QYYQQYQEQQYYQYRR//bbbbHSAHHSHHAPP2",
"nDDDDDGJGnnJYDGvmkksmmk1k1kZGQ_[QQQQQQQEYQQQ)))'bPPSHHHHSHHHAP/2",
"GDDDDDDGDDDDDDDjm1k1mmkkV11MCYQ__QQQQQQQTQQ(})'!tSPAAHSAHHAHHPR2",
"DDDDGDDDnJDnnDGi1kVVmmkMmkk1vGCDnvjjnnnjvckMZVAA2APSAHHHHHAAHPRt"
};
