/* XPM */
static char *be8cd710fcbf4d9895cea8d3020a46b73LIGjB6YNDGPn9iP[] = {
/* columns rows colors chars-per-pixel */
"64 64 89 1 ",
"  c #AD8551",
". c #AF8A56",
"X c #AC8B5A",
"o c #B58D59",
"O c #B7925D",
"+ c #B9935E",
"@ c #B69161",
"# c #BC9563",
"$ c #BD9B66",
"% c #BC9A6A",
"& c #C39C66",
"* c #C99D66",
"= c #C49D6B",
"- c #C99E6B",
"; c #C59F70",
": c #C89F71",
"> c #CDA162",
", c #C5A36E",
"< c #CDA36C",
"1 c #D1A467",
"2 c #D2A56C",
"3 c #D4A96D",
"4 c #D9AC6E",
"5 c #C3A272",
"6 c #CBA573",
"7 c #C5A977",
"8 c #CDAA75",
"9 c #CFA678",
"0 c #C7A879",
"q c #CDAC7B",
"w c #D4AC73",
"e c #DAAE74",
"r c #D4AE7A",
"t c #DAAF79",
"y c #D6B074",
"u c #DBB275",
"i c #D5B27C",
"p c #DBB47C",
"a c #DDB87E",
"s c #E1B57B",
"d c #E3BA7E",
"f c #E8BA7F",
"g c #CEAF80",
"h c #D2AF82",
"j c #CEB283",
"k c #D4B483",
"l c #DBB682",
"z c #D6B984",
"x c #DDBA84",
"c c #D4B68A",
"v c #D8B688",
"b c #D5BA8B",
"n c #DDBD8A",
"m c #D7BA90",
"M c #DABE92",
"N c #E1B780",
"B c #E2BC84",
"V c #E8BF81",
"C c #E2BE8A",
"Z c #E9BF8B",
"A c #E1BE90",
"S c #D7C08E",
"D c #DEC18D",
"F c #DEC293",
"G c #DDC69B",
"H c #E4C086",
"J c #EAC285",
"K c #E3C28D",
"L c #E9C48D",
"P c #E9C88F",
"I c #E4C592",
"U c #E9C692",
"Y c #E6C994",
"T c #EACA94",
"R c #E5C699",
"E c #E6CA9A",
"W c #EACD9A",
"Q c #F1CB94",
"! c #F2CF9C",
"~ c #EDD09C",
"^ c #F2D297",
"/ c #F1D29C",
"( c #E2CCA2",
") c #EACDA0",
"_ c #EED2A1",
"` c #ECD4A9",
"' c #F2D4A3",
"] c #FAD9A6",
"[ c #F9DCB2",
/* pixels */
"Rvk07qnYDYT~YDDDSSSzSPSSYYSSSYYYYSzHPSP^KD8iYxzUnDIDxziinxCnvvcR",
"cckcnDT/T~^YDDDIYSSSSYY^^~^YYYYSPSSSPYY^PYiiYxzDIDDIKni8znRTRRM)",
"vnFRYW~~PYPIIIRY^YYYPY^^Y(YYYSYS^PSP^SSPDTiixznYIFnDKKlw8lERWEFE",
")WERIKDKDDIYWWEYSYSYYSSYYYYYYYSSPSPPPPPSDYi6qinHIFnKIIli,iKIREvR",
"EWERAKDKTTTTWWYIYYYYYYYSYYYY(^~Y^YYYYSPDKTx888ziRIKKKKCBriCnRRM)",
"ARIRIRPY^TYIIUYEYYYSSY~~Y~^(^SS^YYYYYPDPKYKDxzxinSKDKnKLlrvnIIA)",
"ARRRUYUUYIIKUUWWYYYSYY~~~Y~~YSSSYYYYPDPDKHKUYKUxznDLKKKLCrzCRnhA",
"RAAIIKTWT^^^~TTWYYSSY~YY~~Y~~YYY^^^^YYY^WYKYIKWKnKIWYWPUUllURv5c",
"InIRDPDYYDSPPDDPSSYYYS(~Y~~~YYYYYYYYYY^^YY^YUKKUCDDHCKLLKCCCAngv",
"RATYYPDPDPPPDziqYYY^Y~YYYWYYFYYYYYYYY^YYYYPYKKKKnDnxBCBKKBClkhgn",
"RAUIYTDHQTx,7iY^~~Y~~YYYYYYYYYYYPY^YYYPPYY^YUKKKDnnxxBBBCCKlkhgI",
"AvnDKTHHaazaaP~/YY(YYYYYY(W(YYYWY^YY^YYY^^YPKKnKxDBnBnxNaNLxnnhM",
"CvnlDPLPaiaY~PKKSYYYYYY~~~Y~WWEWYYYDYYPYYPKDHDKDHDHIKBBxrtBlCCkc",
"RAIlDYPT^DiHTYP~YY~YSSYYYYYYYWEY^YPDPYYPYPHDHKPUHIPKCBNsaanpCCgr",
"!UWCDPTT^KHPWYT^Y~~~~YYY(YYYWWYYYYPPYDYPDDPPYTTUUKKBxlasNBZxCIvv",
"WRWIPTPT^PLKKKPYYYYY~YYYYYYYYTYYYYDYYPDzzzDDTUYKYKCzpalltxUCUYvv",
"R!WYIYYKDTxaSaPPPYYYPYTYTYPYPYYUYDDSDHPHaaDHDPDPKxplCLBBNBCCTInE",
"REEIIYIDDPaSDPPDTWTTYTTYQTUYUUTUSDzDDHDDDBBDDDDDTICnCCBBBCBnCvvD",
"REYFIWWIDDiSPT^DT^WTYWTYWTUKKKKYDnDHKDBJLJHHDHPYTTUKClBBxBBnnzvn",
"nDFDIWWYDYiiYPTYDYDYT^TPIIKCKDKKIDKYPHDHBHLPTPPDUUUClplNxBCCIDxF",
"YEWW/'//P~DDHDPDDDPDYTTYKIIKKCKKIKIYPaaaaDVLPPPPUUCCBxlalBCCRKIE",
"W~__/~WWaTKPTDPPYYPIYTPDCKPIIKZKYYTUPHSaBaaazHPPUKKHLKBNxBCCUKKR",
"FFYEKvzzSTYY^YTT~TPKY~PDlnIKCKCIYTTYPPHauyuaaHHHLKCZJHBaaNnCIKnR",
"YW__WKnnT/TYTPTPTYKDPTTKlnLIULZIDYPHHPJa,1yadHDHBCBLZNpupNNCIAIE",
"W~WFnKT~TYUTTTPBKPYKKnxxnKKKKCLIxDDdHLJJ4uuauuaaxpupaauuarrCnCAI",
"cSYFIIYW~TTTPYDSSHDHCxzlCnCCCZCCnHHaaHHVVVVdaaaaaaaadVHBaaCUUIMA",
"SF__WWWY^~~^YHBSxDIPKCnBUCxCAUUCxHHSaVVdJJVVdddaaaaaauuasw$$rvnW",
"YEWWYYYYYTWTPHSaHPYYTTUUUCCCZLUCLHPHHJJJJVVVVJVaaadau4442- ohvhv",
"FYEEYW~WYYTYKDaSIKKKKUUUCCCCNCCUHHHBddVVVdVVJJJdyyauyyuaNt##lh9v",
"FW_W~~~TTTYYHDSaYIKKKIUUCLCCvBCZDDauuasu44udVVdd3yyywwusw2+.@@%h",
"YWWWWYID~TYKHDDDTUKKKULUUCCCCCCCaayyuuu4>14uuuuuyyyy334uttpCZvvA",
"___WWTTW~THKIPKK^YYPUUUCCCNlCCNNDuyy4sd4>4uuuuuuuuyyw4upNw9lnAAM",
"(W`/YY^W^~TLY//UUYKYYTUKYClkNLCidduyuuussess4eseett3yaaayiixRIvI",
"SY~(DY~^~TTQW//!YTTTTUUUTClpxKCxdau4uussfsffe4eeesstuBaiSDnDRKmM",
"SY~~YW^Y^TW//^W/YYYYYKKUUKBvnCKCdu4334useess44eeplNaaVaaaDDYRRA(",
"~W//YY^P~~TTTYWWPKKPUKKKIKKCCKIHduu334u4413312eesNNBDVSuaDHIWEA)",
")W(WYYYDP~YaiDYYPKCnUUIKKUUIKIKKVVdpupu4t232*2esNBNBBHailCKIRUA)",
"WW~WDYYDD^D7,zYDKxlzxCCnCIUUPPIHBZVdaau<222213sNBNsxaxaiinCARRA)",
"EE)~YY^DPPx,$7xDnNBlizannHKKDYIIBLHVNNu2**2eetBNCNapaaiiixCnR)RR",
"Y()WPYYYYPz,$,iDCUCBiixLnDDDDPYWLQQLLKBu<2NZZNNpZNaupaaaxKACAAmm",
"~WWYYDIYDDDzDDDiCCALCUCIKKKnDKKHTLHHJLHVNauaNNpsppaBaiiakzCnEIhm",
"FSFFFDKY^YPPPPISCllNCCCxipzxDYYYPHHHHHHBNpruNppppaaaiyyixHRKRIvE",
"FSFEYPYTTYTTYYTPCClnCKCnzznDKYUPBKLBHKBKBlrusaptaaaauyyaznKDERgc",
"WEW_~TTTTPYP^TTYWULCLKKKKKKnKKKKnBBBnBBHClppllttapyaiiaxKKInAvgc",
"~WEW~YYTTTTPTTWWYWUKCnCKCCnxCKUKnnxzzzBKClplllllrrwuapaaKIn800gE",
")YEEYYPPYYPYUYTTYT^YKnKKKKCxBCCAHxzplaxBurrililNptuaaaDJUxq6cnhM",
"W(YWYPDDKKPYIKIIPTTYPKKITUCCCZCCDxaannxxqwilpilCBNlNdxnBKxvv'_ch",
"EFFYYDxSDLYTTUIIKYYKYYUIKICCnCZNnxxDHKBnrixBltpBNppaappp,pURAc;h",
"~~WGRnnxnKTTYKDKDIIIYYYYSYYDAUUAnHHDnKBx+&2pNtt3p-2tetN:*NNhN9:h",
"((EEIvzkYUTTUYYIDIIIYYYYEYYYRQUBYYKDKKKxairwwtsNe-et*&<*o::9ZZlZ",
"(EEEEIKKWPPUTTYKKKKKKKYYTTTYUQUCDKKDzxzlLCZBBBNNtwsN2-rt-*@@99:9",
"FbmSnnCKKKKKTTYIKKKKDDDKTYDxCUUCinKxr8rpaaNBNpw-t<2e9wlrl:&&:@Xo",
"EFnvnnBKHHPPTTPPPKKKKKKKYKxpzBCCxDDxzrixllppNptwt<<wwrtrCBCUZAhN",
"'(RRIIUQPPPQTUYYULUUUUUPPYKKBxNCKxizCKxlCBNlNCNprrpzxlBKlivvhhhv",
"YFFIICULTPLLPTPYTQPTWTTQLPLBlpNCniriCCClltplNlt9waCCnpzKTIInhhvA",
"RFRYTIKLQLaxHPTKLTLTQPTUHni8-6lZiiizllCLICNlNCNlKUYPInizkvREFA)E",
"RERTIKPTQa8iT^KKxULDUTCNlrr9=&&,8nxCCUBUZlrQCl9UTDxKTYDzvFRRRFbb",
"REEERKUUQQPKQTKYDUUPPxhlBlpNCl6o+8xxCUClNlv=rrZATHzzDDIKDDSFFFFF",
"E(WRICnKHTYHKYYTYYTTTlwtIZACCUlrO&xlZCUllAB#6lRBYKIIKYFFRFEEGGFS",
"E((EFKKIDKziDT~~YYY/]]QRRQUlnUUU8&wxZCUlAA9::rtCxDKYYWRIEEEEFmmF",
"GRGERYWWW^DST__~/~GSvvlhBAABI!RvC,$llCCCZA;#-50CxvkkbnIRRMmmbcM(",
"GGGGGFRYY~~W~~E~DGD7XX#=hnAmnvnkT8#llCxZANh@C9vCDkizzvcvkccmbjcM",
"G(((FFFISW~WYSSGjbGc%%hmhAAAcqvRCt=rCClClvA=!vAADq7nRxgjkcmMMccm",
"G(````____WWGSqSFmW)c%:hACnAFnnnrr2=Clllrl5=AhhYn5%kRCMEFnmcmm(["
};
