/* XPM */
static char *b7d9f0742ff74dbdd0d0997fb3d239195yUbAnyC8jU5mRHS[] = {
/* columns rows colors chars-per-pixel */
"64 64 2 1 ",
"  c #858D63",
". c white",
/* pixels */
"                              ....                              ",
"                              ....                              ",
"                              ....                              ",
"                              ....                              ",
"                              ....                              ",
"                              ....                              ",
"                              ....                              ",
"                              ....                              ",
"                              ....                              ",
"                              ....                              ",
"                              ....                              ",
"                              ....                              ",
"                              ....                              ",
"                              ....                              ",
"................................................................",
"................................................................",
"                    ..                    ..                    ",
"                    ..                    ..                    ",
"                    ..                    ..                    ",
"                    ..                    ..                    ",
"                    ..                    ..                    ",
"                    ..                    ..                    ",
"                    ..                    ..                    ",
"                    ..                    ..                    ",
"                    ..                    ..                    ",
"                    ..                    ..                    ",
"                    ..                    ..                    ",
"                    ..                    ..                    ",
"                    ..                    ..                    ",
"                    ..                    ..                    ",
"                    ..                    ..                    ",
"................................................................",
"................................................................",
"                              ....                              ",
"                              ....                              ",
"                              ....                              ",
"                              ....                              ",
"                              ....                              ",
"                              ....                              ",
"                              ....                              ",
"                              ....                              ",
"                              ....                              ",
"                              ....                              ",
"                              ....                              ",
"                              ....                              ",
"                              ....                              ",
"                              ....                              ",
"                              ....                              ",
"................................................................",
"................................................................",
"                    ..                    ..                    ",
"                    ..                    ..                    ",
"                    ..                    ..                    ",
"                    ..                    ..                    ",
"                    ..                    ..                    ",
"                    ..                    ..                    ",
"                    ..                    ..                    ",
"                    ..                    ..                    ",
"                    ..                    ..                    ",
"                    ..                    ..                    ",
"                    ..                    ..                    ",
"                    ..                    ..                    ",
"                    ..                    ..                    ",
"                    ..                    ..                    "
};
